<svg id="svg" version="1.1" xmlns="http://www.w3.org/2000/svg" xmlns:xlink="http://www.w3.org/1999/xlink" width="400" height="400.95923261390885" viewBox="0, 0, 400,400.95923261390885"><g id="svgg"><path id="path0" d="M189.600 46.000 C 189.600 46.241,187.929 46.400,185.387 46.400 C 182.012 46.400,181.129 46.519,180.945 47.000 C 180.776 47.439,180.084 47.600,178.357 47.600 C 177.052 47.600,176.000 47.779,176.000 48.000 C 176.000 48.222,174.933 48.400,173.600 48.400 C 172.267 48.400,171.200 48.578,171.200 48.800 C 171.200 49.020,170.654 49.200,169.987 49.200 C 169.279 49.200,168.679 49.449,168.545 49.800 C 168.389 50.206,167.753 50.400,166.581 50.400 C 165.627 50.400,164.736 50.580,164.600 50.800 C 164.464 51.020,163.818 51.200,163.164 51.200 C 162.476 51.200,161.878 51.453,161.745 51.800 C 161.603 52.170,160.995 52.400,160.157 52.400 C 159.411 52.400,158.800 52.580,158.800 52.800 C 158.800 53.020,158.350 53.200,157.800 53.200 C 157.250 53.200,156.800 53.380,156.800 53.600 C 156.800 53.820,156.363 54.000,155.829 54.000 C 155.294 54.000,154.587 54.270,154.257 54.600 C 153.927 54.930,153.284 55.200,152.829 55.200 C 152.373 55.200,152.000 55.380,152.000 55.600 C 152.000 55.820,151.634 56.000,151.187 56.000 C 150.741 56.000,150.271 56.270,150.145 56.600 C 150.018 56.930,149.574 57.200,149.157 57.200 C 148.741 57.200,148.400 57.380,148.400 57.600 C 148.400 57.820,147.950 58.000,147.400 58.000 C 146.850 58.000,146.400 58.180,146.400 58.400 C 146.400 58.620,146.034 58.800,145.587 58.800 C 145.141 58.800,144.671 59.070,144.545 59.400 C 144.418 59.730,143.961 60.000,143.529 60.000 C 142.679 60.000,141.600 60.879,141.600 61.571 C 141.600 61.807,141.150 62.000,140.600 62.000 C 140.050 62.000,139.600 62.180,139.600 62.400 C 139.600 62.620,139.285 62.806,138.900 62.813 C 138.035 62.828,136.800 63.729,136.800 64.344 C 136.800 64.595,136.427 64.800,135.971 64.800 C 135.086 64.800,134.000 65.666,134.000 66.371 C 134.000 66.607,133.550 66.800,133.000 66.800 C 132.450 66.800,132.000 66.980,132.000 67.200 C 132.000 67.420,131.807 67.600,131.571 67.600 C 131.018 67.600,130.000 68.618,130.000 69.171 C 130.000 69.407,129.627 69.600,129.171 69.600 C 128.286 69.600,127.200 70.466,127.200 71.171 C 127.200 71.407,127.012 71.600,126.782 71.600 C 126.239 71.600,124.400 73.439,124.400 73.982 C 124.400 74.212,124.130 74.400,123.800 74.400 C 123.470 74.400,123.200 74.580,123.200 74.800 C 123.200 75.020,122.938 75.200,122.618 75.200 C 121.720 75.200,114.800 82.285,114.800 83.204 C 114.800 83.642,114.607 84.000,114.371 84.000 C 113.818 84.000,112.800 85.018,112.800 85.571 C 112.800 85.807,112.596 86.000,112.347 86.000 C 111.685 86.000,110.001 88.082,110.000 88.900 C 110.000 89.285,109.730 89.600,109.400 89.600 C 109.070 89.600,108.800 89.793,108.800 90.029 C 108.800 90.582,107.782 91.600,107.229 91.600 C 106.993 91.600,106.800 92.010,106.800 92.512 C 106.800 93.013,106.440 93.683,106.000 94.000 C 105.560 94.317,105.200 94.807,105.200 95.088 C 105.200 95.370,104.930 95.600,104.600 95.600 C 104.267 95.600,104.000 95.956,104.000 96.400 C 104.000 96.840,103.820 97.200,103.600 97.200 C 103.380 97.200,103.200 97.470,103.200 97.800 C 103.200 98.130,103.023 98.400,102.808 98.400 C 102.592 98.400,102.302 98.850,102.164 99.400 C 102.026 99.950,101.753 100.400,101.557 100.400 C 101.360 100.400,101.200 100.760,101.200 101.200 C 101.200 101.640,101.020 102.000,100.800 102.000 C 100.580 102.000,100.400 102.270,100.400 102.600 C 100.400 102.930,100.130 103.200,99.800 103.200 C 99.427 103.200,99.200 103.578,99.200 104.200 C 99.200 104.750,99.020 105.200,98.800 105.200 C 98.580 105.200,98.400 105.541,98.400 105.957 C 98.400 106.374,98.130 106.818,97.800 106.945 C 97.470 107.071,97.200 107.541,97.200 107.987 C 97.200 108.434,97.020 108.800,96.800 108.800 C 96.580 108.800,96.400 109.250,96.400 109.800 C 96.400 110.350,96.220 110.800,96.000 110.800 C 95.780 110.800,95.600 111.250,95.600 111.800 C 95.600 112.422,95.373 112.800,95.000 112.800 C 94.581 112.800,94.400 113.222,94.400 114.200 C 94.400 114.970,94.220 115.600,94.000 115.600 C 93.780 115.600,93.600 116.031,93.600 116.557 C 93.600 117.084,93.330 117.618,93.000 117.745 C 92.649 117.879,92.400 118.479,92.400 119.187 C 92.400 119.854,92.220 120.400,92.000 120.400 C 91.780 120.400,91.600 121.030,91.600 121.800 C 91.600 122.570,91.420 123.200,91.200 123.200 C 90.980 123.200,90.800 123.830,90.800 124.600 C 90.800 125.578,90.619 126.000,90.200 126.000 C 89.783 126.000,89.600 126.420,89.600 127.376 C 89.600 128.133,89.420 128.864,89.200 129.000 C 88.980 129.136,88.800 130.027,88.800 130.981 C 88.800 132.153,88.606 132.789,88.200 132.945 C 87.767 133.111,87.600 133.790,87.600 135.387 C 87.600 136.604,87.420 137.600,87.200 137.600 C 86.978 137.600,86.800 138.667,86.800 140.000 C 86.800 141.333,86.622 142.400,86.400 142.400 C 86.156 142.400,86.000 144.267,86.000 147.200 C 86.000 151.200,85.900 152.000,85.400 152.000 C 84.889 152.000,84.800 153.067,84.800 159.200 C 84.800 165.333,84.889 166.400,85.400 166.400 C 85.891 166.400,86.000 167.089,86.000 170.200 C 86.000 172.467,86.161 174.000,86.400 174.000 C 86.622 174.000,86.800 175.067,86.800 176.400 C 86.800 177.733,86.978 178.800,87.200 178.800 C 87.420 178.800,87.600 179.507,87.600 180.371 C 87.600 181.236,87.870 182.213,88.200 182.543 C 88.530 182.873,88.800 183.696,88.800 184.371 C 88.800 185.047,88.980 185.600,89.200 185.600 C 89.420 185.600,89.600 186.410,89.600 187.400 C 89.600 188.733,89.756 189.200,90.200 189.200 C 90.633 189.200,90.800 189.644,90.800 190.800 C 90.800 191.680,90.980 192.400,91.200 192.400 C 91.420 192.400,91.600 193.030,91.600 193.800 C 91.600 194.570,91.780 195.200,92.000 195.200 C 92.220 195.200,92.400 195.637,92.400 196.171 C 92.400 196.706,92.670 197.413,93.000 197.743 C 93.330 198.073,93.600 198.716,93.600 199.171 C 93.600 199.627,93.780 200.000,94.000 200.000 C 94.220 200.000,94.400 200.630,94.400 201.400 C 94.400 202.378,94.581 202.800,95.000 202.800 C 95.373 202.800,95.600 203.178,95.600 203.800 C 95.600 204.350,95.780 204.800,96.000 204.800 C 96.220 204.800,96.400 205.430,96.400 206.200 C 96.400 206.970,96.580 207.600,96.800 207.600 C 97.020 207.600,97.200 207.966,97.200 208.413 C 97.200 208.859,97.470 209.329,97.800 209.455 C 98.130 209.582,98.400 210.116,98.400 210.643 C 98.400 211.169,98.580 211.600,98.800 211.600 C 99.020 211.600,99.200 211.960,99.200 212.400 C 99.200 212.844,99.467 213.200,99.800 213.200 C 100.219 213.200,100.400 213.622,100.400 214.600 C 100.400 215.370,100.580 216.000,100.800 216.000 C 101.020 216.000,101.200 216.450,101.200 217.000 C 101.200 217.550,101.380 218.000,101.600 218.000 C 101.820 218.000,102.000 218.366,102.000 218.813 C 102.000 219.259,102.270 219.729,102.600 219.855 C 102.930 219.982,103.200 220.516,103.200 221.043 C 103.200 221.569,103.380 222.000,103.600 222.000 C 103.820 222.000,104.000 222.366,104.000 222.813 C 104.000 223.259,104.270 223.729,104.600 223.855 C 104.930 223.982,105.200 224.416,105.200 224.819 C 105.200 225.223,105.380 225.664,105.600 225.800 C 105.820 225.936,106.000 226.397,106.000 226.824 C 106.000 227.251,106.160 227.600,106.357 227.600 C 106.553 227.600,106.826 228.050,106.964 228.600 C 107.102 229.150,107.392 229.600,107.608 229.600 C 107.823 229.600,108.000 230.050,108.000 230.600 C 108.000 231.150,108.180 231.600,108.400 231.600 C 108.620 231.600,108.800 231.935,108.800 232.344 C 108.800 232.753,109.250 233.426,109.800 233.839 C 110.351 234.253,110.800 234.996,110.800 235.495 C 110.800 235.993,110.980 236.400,111.200 236.400 C 111.420 236.400,111.600 236.766,111.600 237.213 C 111.600 237.659,111.870 238.129,112.200 238.255 C 112.530 238.382,112.800 238.826,112.800 239.243 C 112.800 239.659,112.980 240.000,113.200 240.000 C 113.420 240.000,113.600 240.450,113.600 241.000 C 113.600 241.622,113.827 242.000,114.200 242.000 C 114.530 242.000,114.800 242.270,114.800 242.600 C 114.800 242.930,114.980 243.200,115.200 243.200 C 115.420 243.200,115.600 243.560,115.600 244.000 C 115.600 244.440,115.780 244.800,116.000 244.800 C 116.220 244.800,116.400 245.166,116.400 245.613 C 116.400 246.059,116.670 246.529,117.000 246.655 C 117.330 246.782,117.600 247.239,117.600 247.671 C 117.600 248.521,118.479 249.600,119.171 249.600 C 119.407 249.600,119.600 250.050,119.600 250.600 C 119.600 251.150,119.780 251.600,120.000 251.600 C 120.220 251.600,120.400 251.973,120.400 252.429 C 120.400 253.314,121.266 254.400,121.971 254.400 C 122.207 254.400,122.400 254.850,122.400 255.400 C 122.400 255.950,122.580 256.400,122.800 256.400 C 123.020 256.400,123.200 256.735,123.200 257.144 C 123.200 257.553,123.650 258.226,124.200 258.639 C 124.750 259.052,125.200 259.732,125.200 260.149 C 125.200 260.567,125.650 261.325,126.200 261.835 C 126.750 262.345,127.200 263.040,127.200 263.381 C 127.200 263.721,127.380 264.000,127.600 264.000 C 127.820 264.000,128.000 264.450,128.000 265.000 C 128.000 265.622,128.227 266.000,128.600 266.000 C 128.930 266.000,129.200 266.270,129.200 266.600 C 129.200 266.930,129.380 267.200,129.600 267.200 C 129.820 267.200,130.000 267.560,130.000 268.000 C 130.000 268.440,130.180 268.800,130.400 268.800 C 130.620 268.800,130.800 269.070,130.800 269.400 C 130.800 269.730,131.070 270.000,131.400 270.000 C 131.730 270.000,132.006 270.315,132.013 270.700 C 132.028 271.565,132.929 272.800,133.544 272.800 C 133.795 272.800,134.000 273.210,134.000 273.712 C 134.000 274.213,134.360 274.883,134.800 275.200 C 135.240 275.517,135.600 276.187,135.600 276.688 C 135.600 277.232,135.842 277.600,136.200 277.600 C 136.540 277.600,136.800 277.959,136.800 278.429 C 136.800 279.314,137.666 280.400,138.371 280.400 C 138.607 280.400,138.800 280.810,138.800 281.312 C 138.800 281.813,139.160 282.483,139.600 282.800 C 140.040 283.117,140.400 283.607,140.400 283.888 C 140.400 284.170,140.670 284.400,141.000 284.400 C 141.330 284.400,141.606 284.715,141.613 285.100 C 141.628 285.965,142.529 287.200,143.144 287.200 C 143.395 287.200,143.600 287.610,143.600 288.112 C 143.600 288.613,143.960 289.283,144.400 289.600 C 144.840 289.917,145.200 290.472,145.200 290.832 C 145.200 291.193,145.650 291.826,146.200 292.239 C 146.751 292.653,147.200 293.396,147.200 293.895 C 147.200 294.433,147.443 294.800,147.800 294.800 C 148.130 294.800,148.400 295.030,148.400 295.312 C 148.400 295.593,148.760 296.083,149.200 296.400 C 149.640 296.717,150.000 297.272,150.000 297.632 C 150.000 297.993,150.450 298.626,151.000 299.039 C 151.550 299.452,152.000 300.082,152.000 300.439 C 152.000 300.796,152.450 301.426,153.000 301.839 C 153.550 302.252,154.000 302.817,154.000 303.095 C 154.000 303.373,154.180 303.600,154.400 303.600 C 154.620 303.600,154.800 303.960,154.800 304.400 C 154.800 304.844,155.067 305.200,155.400 305.200 C 155.730 305.200,156.000 305.470,156.000 305.800 C 156.000 306.130,156.180 306.400,156.400 306.400 C 156.620 306.400,156.800 306.717,156.800 307.104 C 156.800 307.491,157.426 308.346,158.191 309.004 C 158.957 309.662,159.587 310.521,159.591 310.913 C 159.596 311.304,159.870 311.729,160.200 311.855 C 160.530 311.982,160.800 312.255,160.800 312.461 C 160.800 312.667,161.250 313.286,161.800 313.836 C 162.350 314.386,162.800 315.023,162.800 315.252 C 162.800 315.480,163.430 316.279,164.200 317.026 C 164.970 317.774,165.600 318.659,165.600 318.993 C 165.600 319.327,165.780 319.600,166.000 319.600 C 166.220 319.600,166.400 319.840,166.400 320.132 C 166.400 320.425,166.850 320.906,167.400 321.200 C 167.950 321.494,168.400 321.975,168.400 322.268 C 168.400 322.560,168.580 322.800,168.800 322.800 C 169.020 322.800,169.200 323.160,169.200 323.600 C 169.200 324.044,169.467 324.400,169.800 324.400 C 170.130 324.400,170.400 324.595,170.400 324.833 C 170.400 325.072,171.030 325.879,171.800 326.626 C 172.570 327.374,173.200 328.259,173.200 328.593 C 173.200 328.927,173.380 329.200,173.600 329.200 C 173.820 329.200,174.000 329.470,174.000 329.800 C 174.000 330.130,174.193 330.400,174.429 330.400 C 174.888 330.400,176.000 331.382,176.000 331.788 C 176.000 332.023,176.414 332.574,177.500 333.785 C 177.775 334.092,178.000 334.459,178.000 334.600 C 178.000 335.015,179.105 336.000,179.571 336.000 C 179.807 336.000,180.000 336.270,180.000 336.600 C 180.000 336.930,180.180 337.200,180.400 337.200 C 180.620 337.200,180.800 337.560,180.800 338.000 C 180.800 338.444,181.067 338.800,181.400 338.800 C 181.730 338.800,182.000 338.996,182.000 339.235 C 182.000 339.474,182.990 340.636,184.200 341.817 C 185.410 342.999,186.400 344.153,186.400 344.383 C 186.400 344.612,186.670 344.800,187.000 344.800 C 187.330 344.800,187.600 345.094,187.600 345.453 C 187.600 345.812,188.230 346.700,189.000 347.426 C 189.770 348.152,190.400 348.938,190.400 349.173 C 190.400 349.408,190.550 349.600,190.734 349.600 C 190.918 349.600,191.890 350.410,192.894 351.400 C 193.898 352.390,194.989 353.200,195.317 353.200 C 195.646 353.200,196.018 353.470,196.145 353.800 C 196.271 354.130,196.741 354.400,197.187 354.400 C 197.634 354.400,198.000 354.580,198.000 354.800 C 198.000 355.020,198.900 355.200,200.000 355.200 C 201.100 355.200,202.000 355.020,202.000 354.800 C 202.000 354.580,202.317 354.400,202.704 354.400 C 203.091 354.400,203.946 353.774,204.604 353.009 C 205.262 352.243,206.025 351.613,206.300 351.609 C 206.575 351.604,206.800 351.407,206.800 351.171 C 206.800 350.618,207.818 349.600,208.371 349.600 C 208.607 349.600,208.800 349.412,208.800 349.182 C 208.800 348.639,210.639 346.800,211.182 346.800 C 211.412 346.800,211.600 346.620,211.600 346.400 C 211.600 346.180,212.680 344.920,214.000 343.600 C 215.320 342.280,216.400 340.930,216.400 340.600 C 216.400 340.270,216.580 340.000,216.800 340.000 C 217.020 340.000,217.200 339.730,217.200 339.400 C 217.200 339.070,217.388 338.800,217.618 338.800 C 218.124 338.800,220.000 336.978,220.000 336.486 C 220.000 336.293,220.450 335.894,221.000 335.600 C 221.628 335.264,222.000 334.718,222.000 334.132 C 222.000 333.620,222.193 333.200,222.429 333.200 C 222.936 333.200,224.000 332.200,224.000 331.724 C 224.000 331.540,224.450 331.052,225.000 330.639 C 225.550 330.226,226.000 329.636,226.000 329.329 C 226.000 329.022,226.810 327.983,227.800 327.021 C 228.801 326.048,229.600 324.900,229.600 324.436 C 229.600 323.976,229.793 323.600,230.029 323.600 C 230.582 323.600,231.600 322.582,231.600 322.029 C 231.600 321.793,231.768 321.600,231.973 321.600 C 232.178 321.600,232.475 321.195,232.632 320.700 C 232.789 320.205,233.521 319.248,234.259 318.572 C 234.996 317.896,235.600 317.041,235.600 316.672 C 235.600 316.302,235.780 316.000,236.000 316.000 C 236.220 316.000,236.400 315.730,236.400 315.400 C 236.400 315.070,236.593 314.800,236.829 314.800 C 237.476 314.800,238.400 313.742,238.400 313.000 C 238.400 312.258,239.324 311.200,239.971 311.200 C 240.207 311.200,240.400 310.930,240.400 310.600 C 240.400 310.270,240.580 310.000,240.800 310.000 C 241.020 310.000,241.200 309.640,241.200 309.200 C 241.200 308.756,241.467 308.400,241.800 308.400 C 242.130 308.400,242.400 308.170,242.400 307.888 C 242.400 307.607,242.760 307.117,243.200 306.800 C 243.640 306.483,244.000 305.813,244.000 305.312 C 244.000 304.810,244.193 304.400,244.429 304.400 C 244.982 304.400,246.000 303.382,246.000 302.829 C 246.000 302.593,246.139 302.400,246.309 302.400 C 246.479 302.400,246.957 301.770,247.372 301.000 C 247.787 300.230,248.278 299.600,248.463 299.600 C 248.648 299.600,248.800 299.150,248.800 298.600 C 248.800 298.050,248.993 297.600,249.229 297.600 C 249.782 297.600,250.800 296.582,250.800 296.029 C 250.800 295.793,250.980 295.600,251.200 295.600 C 251.420 295.600,251.600 295.240,251.600 294.800 C 251.600 294.356,251.867 294.000,252.200 294.000 C 252.530 294.000,252.800 293.730,252.800 293.400 C 252.800 293.070,252.980 292.800,253.200 292.800 C 253.420 292.800,253.600 292.521,253.600 292.181 C 253.600 291.840,254.050 291.145,254.600 290.635 C 255.150 290.125,255.600 289.401,255.600 289.026 C 255.600 288.262,256.514 287.200,257.171 287.200 C 257.407 287.200,257.600 286.828,257.600 286.373 C 257.600 285.918,258.230 284.952,259.000 284.226 C 259.770 283.500,260.400 282.612,260.400 282.253 C 260.400 281.894,260.580 281.600,260.800 281.600 C 261.020 281.600,261.200 281.330,261.200 281.000 C 261.200 280.670,261.470 280.400,261.800 280.400 C 262.157 280.400,262.400 280.033,262.400 279.495 C 262.400 278.996,262.849 278.253,263.400 277.839 C 263.950 277.426,264.400 276.753,264.400 276.344 C 264.400 275.935,264.580 275.600,264.800 275.600 C 265.020 275.600,265.200 275.227,265.200 274.771 C 265.200 273.886,266.066 272.800,266.771 272.800 C 267.007 272.800,267.200 272.393,267.200 271.895 C 267.200 271.396,267.649 270.653,268.200 270.239 C 268.750 269.826,269.200 269.236,269.200 268.927 C 269.200 268.619,269.560 267.980,270.000 267.508 C 270.440 267.036,270.800 266.323,270.800 265.925 C 270.800 265.526,271.070 265.200,271.400 265.200 C 271.730 265.200,272.000 264.930,272.000 264.600 C 272.000 264.270,272.180 264.000,272.400 264.000 C 272.620 264.000,272.800 263.659,272.800 263.243 C 272.800 262.826,273.070 262.382,273.400 262.255 C 273.730 262.129,274.000 261.659,274.000 261.213 C 274.000 260.766,274.180 260.400,274.400 260.400 C 274.620 260.400,274.800 260.130,274.800 259.800 C 274.800 259.470,274.980 259.200,275.200 259.200 C 275.420 259.200,275.600 258.859,275.600 258.443 C 275.600 258.026,275.870 257.582,276.200 257.455 C 276.530 257.329,276.800 256.859,276.800 256.413 C 276.800 255.966,276.980 255.600,277.200 255.600 C 277.420 255.600,277.600 255.349,277.600 255.043 C 277.600 254.736,277.870 254.382,278.200 254.255 C 278.530 254.129,278.800 253.749,278.800 253.413 C 278.800 253.076,278.980 252.800,279.200 252.800 C 279.420 252.800,279.600 252.350,279.600 251.800 C 279.600 251.250,279.780 250.800,280.000 250.800 C 280.220 250.800,280.400 250.530,280.400 250.200 C 280.400 249.870,280.670 249.600,281.000 249.600 C 281.333 249.600,281.600 249.244,281.600 248.800 C 281.600 248.360,281.780 248.000,282.000 248.000 C 282.220 248.000,282.400 247.550,282.400 247.000 C 282.400 246.378,282.627 246.000,283.000 246.000 C 283.330 246.000,283.600 245.730,283.600 245.400 C 283.600 245.070,283.780 244.800,284.000 244.800 C 284.220 244.800,284.400 244.451,284.400 244.024 C 284.400 243.597,284.580 243.136,284.800 243.000 C 285.020 242.864,285.200 242.403,285.200 241.976 C 285.200 241.549,285.470 241.200,285.800 241.200 C 286.173 241.200,286.400 240.822,286.400 240.200 C 286.400 239.650,286.580 239.200,286.800 239.200 C 287.020 239.200,287.200 238.750,287.200 238.200 C 287.200 237.650,287.393 237.200,287.629 237.200 C 288.334 237.200,289.200 236.114,289.200 235.229 C 289.200 234.773,289.380 234.400,289.600 234.400 C 289.820 234.400,290.000 233.950,290.000 233.400 C 290.000 232.778,290.227 232.400,290.600 232.400 C 290.930 232.400,291.200 232.051,291.200 231.624 C 291.200 231.197,291.380 230.736,291.600 230.600 C 291.820 230.464,292.000 230.023,292.000 229.619 C 292.000 229.216,292.270 228.782,292.600 228.655 C 292.930 228.529,293.200 228.059,293.200 227.613 C 293.200 227.166,293.380 226.800,293.600 226.800 C 293.820 226.800,294.000 226.350,294.000 225.800 C 294.000 225.250,294.180 224.800,294.400 224.800 C 294.620 224.800,294.800 224.350,294.800 223.800 C 294.800 223.178,295.027 222.800,295.400 222.800 C 295.733 222.800,296.000 222.444,296.000 222.000 C 296.000 221.560,296.180 221.200,296.400 221.200 C 296.620 221.200,296.800 220.769,296.800 220.243 C 296.800 219.716,297.070 219.182,297.400 219.055 C 297.730 218.929,298.000 218.459,298.000 218.013 C 298.000 217.566,298.180 217.200,298.400 217.200 C 298.620 217.200,298.800 216.750,298.800 216.200 C 298.800 215.650,298.980 215.200,299.200 215.200 C 299.420 215.200,299.600 214.750,299.600 214.200 C 299.600 213.578,299.827 213.200,300.200 213.200 C 300.619 213.200,300.800 212.778,300.800 211.800 C 300.800 211.030,300.980 210.400,301.200 210.400 C 301.420 210.400,301.600 209.950,301.600 209.400 C 301.600 208.778,301.827 208.400,302.200 208.400 C 302.530 208.400,302.800 208.051,302.800 207.624 C 302.800 207.197,302.980 206.736,303.200 206.600 C 303.420 206.464,303.600 205.733,303.600 204.976 C 303.600 204.219,303.780 203.600,304.000 203.600 C 304.220 203.600,304.400 203.259,304.400 202.843 C 304.400 202.426,304.670 201.982,305.000 201.855 C 305.377 201.711,305.600 201.099,305.600 200.213 C 305.600 199.436,305.780 198.800,306.000 198.800 C 306.220 198.800,306.406 198.485,306.413 198.100 C 306.420 197.715,306.690 197.051,307.013 196.624 C 307.336 196.196,307.600 195.431,307.600 194.924 C 307.600 194.416,307.780 194.000,308.000 194.000 C 308.220 194.000,308.400 193.370,308.400 192.600 C 308.400 191.830,308.580 191.200,308.800 191.200 C 309.020 191.200,309.200 190.570,309.200 189.800 C 309.200 188.822,309.381 188.400,309.800 188.400 C 310.253 188.400,310.400 187.911,310.400 186.400 C 310.400 185.300,310.580 184.400,310.800 184.400 C 311.020 184.400,311.200 183.847,311.200 183.171 C 311.200 182.496,311.470 181.673,311.800 181.343 C 312.171 180.972,312.400 179.990,312.400 178.771 C 312.400 177.687,312.580 176.800,312.800 176.800 C 313.022 176.800,313.200 175.733,313.200 174.400 C 313.200 173.067,313.378 172.000,313.600 172.000 C 313.859 172.000,314.000 167.267,314.000 158.600 C 314.000 149.933,313.859 145.200,313.600 145.200 C 313.367 145.200,313.200 143.867,313.200 142.000 C 313.200 140.133,313.033 138.800,312.800 138.800 C 312.580 138.800,312.400 137.934,312.400 136.876 C 312.400 135.804,312.140 134.609,311.813 134.176 C 311.490 133.749,311.220 132.635,311.213 131.700 C 311.206 130.765,311.020 130.000,310.800 130.000 C 310.580 130.000,310.400 129.370,310.400 128.600 C 310.400 127.622,310.219 127.200,309.800 127.200 C 309.367 127.200,309.200 126.756,309.200 125.600 C 309.200 124.720,309.020 124.000,308.800 124.000 C 308.580 124.000,308.400 123.370,308.400 122.600 C 308.400 121.830,308.220 121.200,308.000 121.200 C 307.780 121.200,307.600 120.654,307.600 119.987 C 307.600 119.279,307.351 118.679,307.000 118.545 C 306.630 118.403,306.400 117.795,306.400 116.957 C 306.400 116.211,306.220 115.600,306.000 115.600 C 305.780 115.600,305.600 115.150,305.600 114.600 C 305.600 113.978,305.373 113.600,305.000 113.600 C 304.627 113.600,304.400 113.222,304.400 112.600 C 304.400 112.050,304.220 111.600,304.000 111.600 C 303.780 111.600,303.600 111.240,303.600 110.800 C 303.600 110.360,303.420 110.000,303.200 110.000 C 302.980 110.000,302.800 109.550,302.800 109.000 C 302.800 108.378,302.573 108.000,302.200 108.000 C 301.827 108.000,301.600 107.622,301.600 107.000 C 301.600 106.450,301.420 106.000,301.200 106.000 C 300.980 106.000,300.800 105.550,300.800 105.000 C 300.800 104.378,300.573 104.000,300.200 104.000 C 299.870 104.000,299.600 103.674,299.600 103.275 C 299.600 102.877,299.240 102.164,298.800 101.692 C 298.360 101.220,298.000 100.550,298.000 100.204 C 298.000 99.858,297.730 99.471,297.400 99.345 C 297.070 99.218,296.794 98.819,296.787 98.457 C 296.771 97.628,295.857 96.400,295.256 96.400 C 295.005 96.400,294.800 96.025,294.800 95.567 C 294.800 95.108,294.170 94.121,293.400 93.374 C 292.630 92.626,292.000 91.741,292.000 91.407 C 292.000 91.073,291.820 90.800,291.600 90.800 C 291.380 90.800,291.200 90.530,291.200 90.200 C 291.200 89.870,291.007 89.600,290.771 89.600 C 290.124 89.600,289.200 88.542,289.200 87.800 C 289.200 87.058,288.276 86.000,287.629 86.000 C 287.393 86.000,287.200 85.807,287.200 85.571 C 287.200 85.018,286.182 84.000,285.629 84.000 C 285.393 84.000,285.200 83.812,285.200 83.582 C 285.200 83.039,283.361 81.200,282.818 81.200 C 282.588 81.200,282.400 81.007,282.400 80.771 C 282.400 80.218,281.382 79.200,280.829 79.200 C 280.593 79.200,280.400 79.012,280.400 78.782 C 280.400 78.239,278.561 76.400,278.018 76.400 C 277.788 76.400,277.600 76.207,277.600 75.971 C 277.600 75.418,276.582 74.400,276.029 74.400 C 275.793 74.400,275.600 74.196,275.600 73.947 C 275.600 73.285,273.518 71.601,272.700 71.600 C 272.315 71.600,272.000 71.330,272.000 71.000 C 272.000 70.670,271.807 70.400,271.571 70.400 C 271.090 70.400,270.000 69.410,270.000 68.973 C 270.000 68.502,268.648 67.626,267.900 67.613 C 267.515 67.606,267.200 67.420,267.200 67.200 C 267.200 66.980,266.930 66.800,266.600 66.800 C 266.270 66.800,266.000 66.530,266.000 66.200 C 266.000 65.867,265.644 65.600,265.200 65.600 C 264.760 65.600,264.400 65.420,264.400 65.200 C 264.400 64.980,264.149 64.800,263.843 64.800 C 263.536 64.800,263.182 64.530,263.055 64.200 C 262.929 63.870,262.499 63.600,262.101 63.600 C 261.703 63.600,261.117 63.240,260.800 62.800 C 260.483 62.360,259.813 62.000,259.312 62.000 C 258.768 62.000,258.400 61.758,258.400 61.400 C 258.400 61.062,258.042 60.800,257.582 60.800 C 257.132 60.800,256.314 60.350,255.764 59.800 C 255.214 59.250,254.502 58.800,254.182 58.800 C 253.862 58.800,253.600 58.620,253.600 58.400 C 253.600 58.180,253.150 58.000,252.600 58.000 C 252.050 58.000,251.600 57.820,251.600 57.600 C 251.600 57.380,251.259 57.200,250.843 57.200 C 250.426 57.200,249.982 56.930,249.855 56.600 C 249.729 56.270,249.259 56.000,248.813 56.000 C 248.366 56.000,248.000 55.820,248.000 55.600 C 248.000 55.380,247.389 55.200,246.643 55.200 C 245.805 55.200,245.197 54.970,245.055 54.600 C 244.929 54.270,244.459 54.000,244.013 54.000 C 243.566 54.000,243.200 53.820,243.200 53.600 C 243.200 53.380,242.570 53.200,241.800 53.200 C 241.030 53.200,240.400 53.020,240.400 52.800 C 240.400 52.580,239.789 52.400,239.043 52.400 C 238.205 52.400,237.597 52.170,237.455 51.800 C 237.311 51.423,236.699 51.200,235.813 51.200 C 235.036 51.200,234.400 51.020,234.400 50.800 C 234.400 50.580,233.789 50.400,233.043 50.400 C 232.205 50.400,231.597 50.170,231.455 49.800 C 231.304 49.406,230.680 49.200,229.636 49.200 C 228.762 49.200,227.936 49.020,227.800 48.800 C 227.664 48.580,226.753 48.400,225.776 48.400 C 224.799 48.400,224.000 48.220,224.000 48.000 C 224.000 47.772,222.814 47.600,221.243 47.600 C 219.161 47.600,218.429 47.453,218.255 47.000 C 218.073 46.525,217.232 46.400,214.213 46.400 C 211.938 46.400,210.400 46.239,210.400 46.000 C 210.400 45.744,206.667 45.600,200.000 45.600 C 193.333 45.600,189.600 45.744,189.600 46.000 M212.800 55.163 C 214.010 55.374,216.260 55.747,217.800 55.991 C 223.240 56.854,232.668 59.337,236.200 60.838 C 236.640 61.025,237.900 61.523,239.000 61.946 C 241.238 62.805,246.242 65.010,247.270 65.591 C 247.639 65.799,249.349 66.720,251.070 67.637 C 260.748 72.792,273.104 82.836,280.047 91.190 C 281.231 92.615,282.428 94.026,282.708 94.327 C 283.399 95.070,288.423 102.193,289.761 104.326 C 294.622 112.079,298.428 120.542,301.578 130.600 C 304.751 140.730,306.725 158.245,305.583 166.123 C 304.285 175.074,300.354 190.079,298.019 195.000 C 297.811 195.440,296.985 197.420,296.186 199.400 C 295.386 201.380,294.495 203.540,294.206 204.200 C 293.917 204.860,293.261 206.390,292.749 207.600 C 291.037 211.642,281.386 230.521,277.695 237.048 C 271.290 248.372,260.997 265.237,260.309 265.533 C 260.139 265.607,260.000 265.807,260.000 265.978 C 260.000 266.861,242.250 292.650,234.175 303.498 C 227.609 312.319,216.133 327.148,215.213 328.000 C 215.095 328.110,213.656 329.820,212.016 331.800 C 210.376 333.780,208.936 335.490,208.817 335.600 C 208.698 335.710,207.902 336.610,207.049 337.600 C 204.669 340.363,200.313 344.800,199.980 344.800 C 199.265 344.800,195.354 340.783,190.400 334.961 C 189.850 334.315,188.482 332.709,187.359 331.393 C 171.277 312.537,145.793 276.766,130.671 251.823 C 130.412 251.396,129.630 250.123,128.932 248.993 C 128.235 247.864,127.309 246.307,126.875 245.533 C 126.440 244.759,124.652 241.622,122.902 238.563 C 117.095 228.409,106.400 207.428,106.400 206.188 C 106.400 206.098,105.940 204.983,105.377 203.712 C 104.815 202.440,104.203 201.040,104.018 200.600 C 102.951 198.062,102.467 196.852,102.020 195.600 C 101.744 194.830,101.362 193.840,101.169 193.400 C 99.968 190.656,96.947 180.632,95.985 176.200 C 93.812 166.186,93.429 154.798,94.957 145.600 C 96.191 138.176,96.357 137.358,97.398 133.600 C 97.976 131.510,98.599 129.260,98.782 128.600 C 100.181 123.544,104.255 114.337,108.250 107.200 C 114.598 95.862,125.966 83.299,137.817 74.525 C 139.503 73.277,144.432 70.000,144.624 70.000 C 144.712 70.000,145.733 69.400,146.892 68.667 C 148.691 67.529,156.061 63.840,158.600 62.807 C 159.040 62.628,160.030 62.212,160.800 61.882 C 168.738 58.481,182.241 55.363,192.200 54.631 C 195.650 54.377,210.496 54.761,212.800 55.163 " stroke="none" fill="#333333" fill-rule="evenodd"></path><path id="path1" d="M192.200 54.631 C 182.241 55.363,168.738 58.481,160.800 61.882 C 160.030 62.212,159.040 62.628,158.600 62.807 C 156.061 63.840,148.691 67.529,146.892 68.667 C 145.733 69.400,144.712 70.000,144.624 70.000 C 144.432 70.000,139.503 73.277,137.817 74.525 C 125.966 83.299,114.598 95.862,108.250 107.200 C 104.255 114.337,100.181 123.544,98.782 128.600 C 98.599 129.260,97.976 131.510,97.398 133.600 C 96.357 137.358,96.191 138.176,94.957 145.600 C 93.429 154.798,93.812 166.186,95.985 176.200 C 96.947 180.632,99.968 190.656,101.169 193.400 C 101.362 193.840,101.744 194.830,102.020 195.600 C 102.467 196.852,102.951 198.062,104.018 200.600 C 104.203 201.040,104.815 202.440,105.377 203.712 C 105.940 204.983,106.400 206.098,106.400 206.188 C 106.400 207.428,117.095 228.409,122.902 238.563 C 124.652 241.622,126.440 244.759,126.875 245.533 C 127.309 246.307,128.235 247.864,128.932 248.993 C 129.630 250.123,130.412 251.396,130.671 251.823 C 145.793 276.766,171.277 312.537,187.359 331.393 C 188.482 332.709,189.850 334.315,190.400 334.961 C 195.354 340.783,199.265 344.800,199.980 344.800 C 200.313 344.800,204.669 340.363,207.049 337.600 C 207.902 336.610,208.698 335.710,208.817 335.600 C 208.936 335.490,210.376 333.780,212.016 331.800 C 213.656 329.820,215.095 328.110,215.213 328.000 C 216.133 327.148,227.609 312.319,234.175 303.498 C 242.250 292.650,260.000 266.861,260.000 265.978 C 260.000 265.807,260.139 265.607,260.309 265.533 C 260.997 265.237,271.290 248.372,277.695 237.048 C 281.386 230.521,291.037 211.642,292.749 207.600 C 293.261 206.390,293.917 204.860,294.206 204.200 C 294.495 203.540,295.386 201.380,296.186 199.400 C 296.985 197.420,297.811 195.440,298.019 195.000 C 300.354 190.079,304.285 175.074,305.583 166.123 C 306.725 158.245,304.751 140.730,301.578 130.600 C 298.428 120.542,294.622 112.079,289.761 104.326 C 288.423 102.193,283.399 95.070,282.708 94.327 C 282.428 94.026,281.231 92.615,280.047 91.190 C 273.104 82.836,260.748 72.792,251.070 67.637 C 249.349 66.720,247.639 65.799,247.270 65.591 C 246.242 65.010,241.238 62.805,239.000 61.946 C 237.900 61.523,236.640 61.025,236.200 60.838 C 232.668 59.337,223.240 56.854,217.800 55.991 C 216.260 55.747,214.010 55.374,212.800 55.163 C 210.496 54.761,195.650 54.377,192.200 54.631 M212.469 121.062 C 214.859 123.225,212.857 124.800,207.717 124.800 L 203.558 124.800 203.679 126.900 L 203.800 129.000 225.408 129.220 C 237.293 129.341,247.220 129.565,247.468 129.718 C 247.716 129.871,253.112 130.199,259.459 130.445 C 278.483 131.184,277.800 131.123,278.971 132.209 C 283.383 136.297,276.988 137.169,242.400 137.197 C 231.185 137.206,226.101 137.469,218.400 138.438 C 216.530 138.673,214.218 138.960,213.263 139.076 C 212.242 139.200,211.344 139.104,211.083 138.843 C 210.839 138.599,209.971 138.400,209.153 138.400 C 208.335 138.400,206.826 138.040,205.800 137.600 C 204.774 137.160,203.851 136.800,203.751 136.800 C 203.650 136.800,203.620 138.285,203.684 140.100 L 203.800 143.400 233.762 143.503 C 265.622 143.612,264.800 143.556,264.800 145.587 C 264.800 147.612,264.052 147.917,257.000 148.764 C 255.460 148.949,251.860 149.405,249.000 149.777 C 241.247 150.785,237.808 151.189,233.600 151.586 C 231.510 151.784,228.720 152.136,227.400 152.370 C 226.080 152.604,223.878 152.796,222.506 152.798 C 221.134 152.799,219.205 153.016,218.220 153.279 C 216.309 153.790,213.970 153.436,210.600 152.126 C 209.720 151.784,208.640 151.364,208.200 151.193 C 207.760 151.022,206.743 150.593,205.940 150.241 C 203.611 149.219,203.600 149.235,203.600 153.600 L 203.600 157.600 208.374 157.600 C 213.897 157.600,214.518 157.774,216.632 159.918 C 219.224 162.546,235.545 179.509,239.610 183.800 C 241.694 186.000,244.423 188.808,245.675 190.039 L 247.950 192.278 251.533 192.510 C 260.609 193.098,263.706 197.305,257.479 200.587 C 252.016 203.467,251.092 202.825,232.191 183.031 C 227.796 178.428,222.359 172.758,220.108 170.431 L 216.016 166.200 216.008 172.974 C 216.000 179.373,215.952 179.800,215.130 180.674 L 214.261 181.600 200.979 181.600 C 190.447 181.600,187.607 181.490,187.258 181.070 C 186.985 180.741,186.778 177.832,186.710 173.370 L 186.600 166.200 180.800 172.033 C 177.610 175.241,172.300 180.717,169.000 184.203 C 151.832 202.334,150.294 203.374,144.840 200.545 C 138.430 197.219,141.425 193.325,151.064 192.449 L 154.729 192.116 158.264 188.389 C 160.209 186.339,163.060 183.382,164.600 181.818 C 166.140 180.254,170.100 176.134,173.400 172.663 C 176.700 169.192,181.226 164.435,183.459 162.092 L 187.517 157.832 192.859 157.668 C 198.903 157.483,198.785 157.550,198.794 154.287 C 198.801 151.721,198.309 151.186,196.731 152.046 C 194.103 153.480,190.223 153.580,180.400 152.466 C 174.412 151.788,170.482 151.624,159.800 151.608 C 129.058 151.560,122.800 151.009,122.800 148.347 C 122.800 145.804,123.966 145.599,142.800 144.839 C 148.630 144.603,156.190 144.233,159.600 144.016 C 163.010 143.799,173.039 143.616,181.886 143.610 C 200.521 143.598,198.800 144.083,198.800 138.850 C 198.800 135.266,198.664 135.036,196.984 135.782 C 190.346 138.731,187.140 139.548,184.876 138.870 C 184.013 138.611,182.068 138.399,180.554 138.397 C 179.039 138.395,176.630 138.204,175.200 137.972 C 173.770 137.740,170.800 137.362,168.600 137.133 C 159.968 136.233,158.443 136.054,154.000 135.414 C 151.470 135.049,147.960 134.593,146.200 134.399 C 138.528 133.554,138.000 133.349,138.000 131.219 C 138.000 129.078,136.146 129.200,168.619 129.200 C 201.629 129.200,199.031 129.452,198.724 126.282 L 198.600 125.000 194.433 124.885 C 189.463 124.748,187.638 123.219,189.829 121.029 C 190.799 120.058,211.393 120.088,212.469 121.062 " stroke="none" fill="#f5b642" fill-rule="evenodd"></path><path id="path2" d="M190.700 121.076 C 189.883 121.289,189.737 123.177,190.480 123.920 C 190.784 124.224,192.313 124.400,194.647 124.400 C 199.474 124.400,199.600 124.460,199.600 126.763 C 199.600 129.806,201.827 129.600,169.000 129.600 C 138.220 129.600,138.400 129.591,138.400 131.218 C 138.400 132.377,139.730 133.121,142.200 133.343 C 147.560 133.825,151.898 134.365,153.600 134.761 C 154.590 134.992,156.199 135.185,157.176 135.190 C 158.153 135.196,159.953 135.375,161.176 135.590 C 162.399 135.804,165.290 136.173,167.600 136.410 C 169.910 136.647,173.795 137.101,176.233 137.420 C 182.022 138.177,189.540 138.186,191.286 137.437 C 199.932 133.730,199.600 133.670,199.600 138.944 C 199.600 144.420,200.560 144.001,188.020 143.994 C 178.034 143.988,171.667 144.180,146.800 145.238 C 123.706 146.220,121.782 146.560,123.978 149.273 L 124.729 150.200 141.464 150.477 C 164.314 150.855,181.079 151.454,183.000 151.960 C 185.909 152.726,193.911 152.509,196.304 151.600 C 199.621 150.339,199.600 150.323,199.600 154.120 C 199.600 158.502,199.753 158.400,193.167 158.400 L 187.693 158.400 186.185 160.100 C 184.560 161.932,171.604 175.460,162.739 184.581 C 159.735 187.672,156.794 190.785,156.203 191.500 C 155.221 192.689,154.934 192.800,152.848 192.800 C 151.594 192.800,149.531 193.070,148.265 193.400 C 146.998 193.730,145.636 194.000,145.239 194.000 C 144.167 194.000,142.400 195.821,142.400 196.926 C 142.400 198.277,144.074 199.801,146.388 200.558 C 150.878 202.027,151.471 201.601,165.804 186.629 C 170.422 181.805,175.370 176.653,176.800 175.180 C 178.230 173.708,180.987 170.856,182.927 168.844 C 184.867 166.832,186.622 165.290,186.827 165.417 C 187.035 165.545,187.200 168.808,187.200 172.795 C 187.200 182.172,185.627 181.200,200.796 181.200 C 216.845 181.200,215.600 181.972,215.600 172.020 C 215.600 168.489,215.735 165.603,215.900 165.606 C 216.410 165.617,218.369 167.551,224.802 174.392 C 248.996 200.124,251.273 202.096,255.270 200.777 C 263.583 198.033,259.624 192.782,249.255 192.797 C 247.594 192.800,247.354 192.640,244.295 189.500 C 235.461 180.431,230.289 175.066,227.230 171.799 C 225.377 169.820,221.715 165.995,219.093 163.300 L 214.326 158.400 209.043 158.400 C 202.556 158.400,202.800 158.597,202.800 153.344 C 202.800 148.139,202.772 148.150,209.000 150.821 C 212.426 152.290,213.053 152.400,218.029 152.400 C 220.851 152.400,224.024 152.219,225.080 151.997 C 226.136 151.776,228.890 151.403,231.200 151.169 C 233.510 150.935,236.660 150.599,238.200 150.422 C 239.740 150.245,243.047 149.895,245.548 149.644 C 248.049 149.393,250.256 149.089,250.451 148.968 C 250.785 148.762,255.199 148.229,260.600 147.743 C 263.070 147.521,264.400 146.777,264.400 145.618 C 264.400 143.990,264.588 144.000,233.600 144.000 C 199.554 144.000,202.800 144.449,202.800 139.744 C 202.800 136.240,203.100 135.644,204.538 136.297 C 208.138 137.934,208.481 138.000,213.314 137.990 C 216.001 137.985,218.920 137.794,219.800 137.565 C 221.462 137.133,236.120 136.655,262.200 136.183 C 278.618 135.886,279.200 135.804,279.200 133.781 C 279.200 131.930,277.986 131.773,256.400 130.833 C 233.574 129.839,225.196 129.590,214.749 129.595 C 202.258 129.601,202.674 129.708,202.877 126.531 L 203.000 124.600 207.315 124.486 C 212.089 124.361,213.139 123.728,212.027 121.651 C 211.591 120.836,193.484 120.348,190.700 121.076 M189.000 133.573 C 191.304 134.108,187.024 134.515,182.849 134.158 C 179.250 133.850,179.130 133.813,181.000 133.577 C 183.711 133.236,187.540 133.234,189.000 133.573 M217.200 133.564 C 219.521 134.224,213.155 134.696,209.800 134.113 L 208.200 133.835 209.400 133.565 C 210.990 133.207,215.940 133.206,217.200 133.564 M193.600 147.965 C 194.509 148.224,194.455 148.274,193.000 148.520 C 189.644 149.088,184.888 148.697,186.066 147.951 C 186.701 147.548,192.174 147.558,193.600 147.965 M222.200 147.959 C 224.113 148.235,224.030 148.262,220.310 148.571 C 216.121 148.918,211.956 148.562,213.400 147.979 C 214.387 147.581,219.502 147.569,222.200 147.959 M211.110 162.336 C 211.498 162.582,211.593 164.361,211.510 169.829 L 211.400 177.000 201.200 177.000 L 191.000 177.000 190.890 170.014 C 190.830 166.172,190.869 162.797,190.978 162.514 C 191.204 161.924,210.196 161.756,211.110 162.336 " stroke="none" fill="#333333" fill-rule="evenodd"></path><path id="path3" d="M189.829 121.029 C 187.638 123.219,189.463 124.748,194.433 124.885 L 198.600 125.000 198.724 126.282 C 199.031 129.452,201.629 129.200,168.619 129.200 C 136.146 129.200,138.000 129.078,138.000 131.219 C 138.000 133.349,138.528 133.554,146.200 134.399 C 147.960 134.593,151.470 135.049,154.000 135.414 C 158.443 136.054,159.968 136.233,168.600 137.133 C 170.800 137.362,173.770 137.740,175.200 137.972 C 176.630 138.204,179.039 138.395,180.554 138.397 C 182.068 138.399,184.013 138.611,184.876 138.870 C 187.140 139.548,190.346 138.731,196.984 135.782 C 198.664 135.036,198.800 135.266,198.800 138.850 C 198.800 144.083,200.521 143.598,181.886 143.610 C 173.039 143.616,163.010 143.799,159.600 144.016 C 156.190 144.233,148.630 144.603,142.800 144.839 C 123.966 145.599,122.800 145.804,122.800 148.347 C 122.800 151.009,129.058 151.560,159.800 151.608 C 170.482 151.624,174.412 151.788,180.400 152.466 C 190.223 153.580,194.103 153.480,196.731 152.046 C 198.309 151.186,198.801 151.721,198.794 154.287 C 198.785 157.550,198.903 157.483,192.859 157.668 L 187.517 157.832 183.459 162.092 C 181.226 164.435,176.700 169.192,173.400 172.663 C 170.100 176.134,166.140 180.254,164.600 181.818 C 163.060 183.382,160.209 186.339,158.264 188.389 L 154.729 192.116 151.064 192.449 C 141.425 193.325,138.430 197.219,144.840 200.545 C 150.294 203.374,151.832 202.334,169.000 184.203 C 172.300 180.717,177.610 175.241,180.800 172.033 L 186.600 166.200 186.710 173.370 C 186.778 177.832,186.985 180.741,187.258 181.070 C 187.607 181.490,190.447 181.600,200.979 181.600 L 214.261 181.600 215.130 180.674 C 215.952 179.800,216.000 179.373,216.008 172.974 L 216.016 166.200 220.108 170.431 C 222.359 172.758,227.796 178.428,232.191 183.031 C 251.092 202.825,252.016 203.467,257.479 200.587 C 263.706 197.305,260.609 193.098,251.533 192.510 L 247.950 192.278 245.675 190.039 C 244.423 188.808,241.694 186.000,239.610 183.800 C 235.545 179.509,219.224 162.546,216.632 159.918 C 214.518 157.774,213.897 157.600,208.374 157.600 L 203.600 157.600 203.600 153.600 C 203.600 149.235,203.611 149.219,205.940 150.241 C 206.743 150.593,207.760 151.022,208.200 151.193 C 208.640 151.364,209.720 151.784,210.600 152.126 C 213.970 153.436,216.309 153.790,218.220 153.279 C 219.205 153.016,221.134 152.799,222.506 152.798 C 223.878 152.796,226.080 152.604,227.400 152.370 C 228.720 152.136,231.510 151.784,233.600 151.586 C 237.808 151.189,241.247 150.785,249.000 149.777 C 251.860 149.405,255.460 148.949,257.000 148.764 C 264.052 147.917,264.800 147.612,264.800 145.587 C 264.800 143.556,265.622 143.612,233.762 143.503 L 203.800 143.400 203.684 140.100 C 203.620 138.285,203.650 136.800,203.751 136.800 C 203.851 136.800,204.774 137.160,205.800 137.600 C 206.826 138.040,208.335 138.400,209.153 138.400 C 209.971 138.400,210.839 138.599,211.083 138.843 C 211.344 139.104,212.242 139.200,213.263 139.076 C 214.218 138.960,216.530 138.673,218.400 138.438 C 226.101 137.469,231.185 137.206,242.400 137.197 C 264.891 137.179,278.478 136.554,279.290 135.499 C 280.257 134.243,280.168 133.317,278.971 132.209 C 277.800 131.123,278.483 131.184,259.459 130.445 C 253.112 130.199,247.716 129.871,247.468 129.718 C 247.220 129.565,237.293 129.341,225.408 129.220 L 203.800 129.000 203.679 126.900 L 203.558 124.800 207.717 124.800 C 212.857 124.800,214.859 123.225,212.469 121.062 C 211.393 120.088,190.799 120.058,189.829 121.029 M212.027 121.651 C 213.139 123.728,212.089 124.361,207.315 124.486 L 203.000 124.600 202.877 126.531 C 202.674 129.708,202.258 129.601,214.749 129.595 C 225.196 129.590,233.574 129.839,256.400 130.833 C 277.986 131.773,279.200 131.930,279.200 133.781 C 279.200 135.804,278.618 135.886,262.200 136.183 C 236.120 136.655,221.462 137.133,219.800 137.565 C 218.920 137.794,216.001 137.985,213.314 137.990 C 208.481 138.000,208.138 137.934,204.538 136.297 C 203.100 135.644,202.800 136.240,202.800 139.744 C 202.800 144.449,199.554 144.000,233.600 144.000 C 264.588 144.000,264.400 143.990,264.400 145.618 C 264.400 146.777,263.070 147.521,260.600 147.743 C 255.199 148.229,250.785 148.762,250.451 148.968 C 250.256 149.089,248.049 149.393,245.548 149.644 C 243.047 149.895,239.740 150.245,238.200 150.422 C 236.660 150.599,233.510 150.935,231.200 151.169 C 228.890 151.403,226.136 151.776,225.080 151.997 C 224.024 152.219,220.851 152.400,218.029 152.400 C 213.053 152.400,212.426 152.290,209.000 150.821 C 202.772 148.150,202.800 148.139,202.800 153.344 C 202.800 158.597,202.556 158.400,209.043 158.400 L 214.326 158.400 219.093 163.300 C 221.715 165.995,225.377 169.820,227.230 171.799 C 230.289 175.066,235.461 180.431,244.295 189.500 C 247.354 192.640,247.594 192.800,249.255 192.797 C 259.624 192.782,263.583 198.033,255.270 200.777 C 251.273 202.096,248.996 200.124,224.802 174.392 C 218.369 167.551,216.410 165.617,215.900 165.606 C 215.735 165.603,215.600 168.489,215.600 172.020 C 215.600 181.972,216.845 181.200,200.796 181.200 C 185.627 181.200,187.200 182.172,187.200 172.795 C 187.200 168.808,187.035 165.545,186.827 165.417 C 186.622 165.290,184.867 166.832,182.927 168.844 C 180.987 170.856,178.230 173.708,176.800 175.180 C 175.370 176.653,170.422 181.805,165.804 186.629 C 151.471 201.601,150.878 202.027,146.388 200.558 C 144.074 199.801,142.400 198.277,142.400 196.926 C 142.400 195.821,144.167 194.000,145.239 194.000 C 145.636 194.000,146.998 193.730,148.265 193.400 C 149.531 193.070,151.594 192.800,152.848 192.800 C 154.934 192.800,155.221 192.689,156.203 191.500 C 156.794 190.785,159.735 187.672,162.739 184.581 C 171.604 175.460,184.560 161.932,186.185 160.100 L 187.693 158.400 193.167 158.400 C 199.753 158.400,199.600 158.502,199.600 154.120 C 199.600 150.323,199.621 150.339,196.304 151.600 C 193.911 152.509,185.909 152.726,183.000 151.960 C 181.079 151.454,164.314 150.855,141.464 150.477 L 124.729 150.200 123.978 149.273 C 121.782 146.560,123.706 146.220,146.800 145.238 C 171.667 144.180,178.034 143.988,188.020 143.994 C 200.560 144.001,199.600 144.420,199.600 138.944 C 199.600 133.670,199.932 133.730,191.286 137.437 C 189.540 138.186,182.022 138.177,176.233 137.420 C 173.795 137.101,169.910 136.647,167.600 136.410 C 165.290 136.173,162.399 135.804,161.176 135.590 C 159.953 135.375,158.153 135.196,157.176 135.190 C 156.199 135.185,154.590 134.992,153.600 134.761 C 151.898 134.365,147.560 133.825,142.200 133.343 C 139.730 133.121,138.400 132.377,138.400 131.218 C 138.400 129.591,138.220 129.600,169.000 129.600 C 201.827 129.600,199.600 129.806,199.600 126.763 C 199.600 124.460,199.474 124.400,194.647 124.400 C 190.633 124.400,190.000 124.121,190.000 122.349 C 190.000 120.883,189.869 120.900,201.486 120.846 C 211.386 120.801,211.580 120.816,212.027 121.651 M181.000 133.577 C 179.130 133.813,179.250 133.850,182.849 134.158 C 187.024 134.515,191.304 134.108,189.000 133.573 C 187.540 133.234,183.711 133.236,181.000 133.577 M209.400 133.565 L 208.200 133.835 209.800 134.113 C 213.155 134.696,219.521 134.224,217.200 133.564 C 215.940 133.206,210.990 133.207,209.400 133.565 M186.066 147.951 C 184.888 148.697,189.644 149.088,193.000 148.520 C 194.455 148.274,194.509 148.224,193.600 147.965 C 192.174 147.558,186.701 147.548,186.066 147.951 M213.400 147.979 C 211.956 148.562,216.121 148.918,220.310 148.571 C 224.030 148.262,224.113 148.235,222.200 147.959 C 219.502 147.569,214.387 147.581,213.400 147.979 M190.978 162.514 C 190.869 162.797,190.830 166.172,190.890 170.014 L 191.000 177.000 201.200 177.000 L 211.400 177.000 211.510 169.829 C 211.593 164.361,211.498 162.582,211.110 162.336 C 210.196 161.756,191.204 161.924,190.978 162.514 " stroke="none" fill="#464035" fill-rule="evenodd"></path></g></svg>