<svg id="svg" version="1.1" xmlns="http://www.w3.org/2000/svg" xmlns:xlink="http://www.w3.org/1999/xlink" width="400" height="400.95923261390885" viewBox="0, 0, 400,400.95923261390885"><g id="svgg"><path id="path0" d="M225.500 95.429 L 224.400 96.026 224.400 103.145 C 224.400 111.193,224.340 111.050,227.800 111.289 L 229.400 111.400 229.504 128.491 L 229.609 145.583 228.704 145.802 C 228.207 145.923,219.790 145.972,210.000 145.911 L 192.200 145.800 191.997 142.800 C 191.649 137.666,192.429 138.000,180.770 138.000 L 170.767 138.000 170.084 139.577 L 169.400 141.155 166.400 137.318 C 164.750 135.207,163.208 133.282,162.973 133.040 C 162.739 132.798,161.974 131.808,161.273 130.840 L 160.000 129.080 160.000 122.816 C 160.000 114.590,160.359 115.038,153.612 114.868 C 146.039 114.677,146.400 114.289,146.400 122.609 C 146.400 130.046,146.543 129.791,143.289 128.170 C 141.967 127.511,140.920 127.235,140.386 127.404 C 139.712 127.618,136.000 132.690,136.000 133.396 C 136.000 133.500,135.370 134.569,134.600 135.773 C 133.830 136.977,133.200 138.069,133.200 138.200 C 133.200 138.331,132.604 139.375,131.876 140.519 C 131.147 141.664,130.426 142.870,130.273 143.200 C 130.120 143.530,129.542 144.520,128.988 145.400 C 126.709 149.023,126.784 150.148,129.400 151.601 C 130.060 151.967,131.500 152.770,132.600 153.385 C 133.700 153.999,135.950 155.219,137.600 156.096 C 139.250 156.972,140.780 157.822,141.000 157.984 C 141.220 158.146,142.750 159.003,144.400 159.888 C 154.072 165.076,154.032 164.997,146.684 164.364 C 140.629 163.842,139.491 163.984,138.579 165.376 C 137.921 166.380,138.636 168.800,139.591 168.800 C 140.634 168.800,143.983 175.484,143.288 176.179 C 143.166 176.300,141.354 176.400,139.262 176.400 C 132.228 176.400,127.377 179.206,124.741 184.800 C 118.628 197.775,129.248 209.928,143.802 206.612 C 146.648 205.963,152.731 200.388,152.784 198.380 C 152.793 198.039,152.956 197.589,153.146 197.380 C 154.436 195.963,154.426 186.958,153.133 186.158 C 152.950 186.045,152.800 185.681,152.800 185.350 C 152.800 184.648,151.243 182.435,149.262 180.320 C 147.925 178.892,147.878 178.736,147.938 175.920 C 147.988 173.582,147.815 172.627,147.070 171.128 C 146.192 169.362,146.181 169.246,146.872 169.065 C 147.867 168.805,163.199 169.968,164.200 170.380 C 167.744 171.838,174.246 173.600,176.081 173.600 C 178.042 173.600,178.974 173.952,180.600 175.305 C 181.070 175.696,185.063 178.656,186.153 179.421 C 186.870 179.924,186.838 180.028,185.481 181.613 C 180.578 187.342,180.589 196.271,185.507 202.016 C 187.157 203.944,190.771 206.400,191.957 206.400 C 192.395 206.400,192.864 206.580,193.000 206.800 C 193.399 207.445,200.365 207.270,202.400 206.563 C 214.634 202.314,216.548 185.277,205.553 178.497 C 202.342 176.516,194.903 175.579,192.803 176.891 C 192.154 177.296,191.788 177.249,190.708 176.622 C 188.963 175.609,187.249 174.271,187.222 173.900 C 187.210 173.735,199.967 173.600,215.571 173.600 L 243.942 173.600 244.771 172.546 C 245.227 171.966,245.600 170.916,245.600 170.213 C 245.600 168.264,246.274 168.287,251.800 170.419 C 252.240 170.589,252.915 170.828,253.300 170.951 C 254.069 171.197,254.241 172.204,253.584 172.610 C 252.438 173.318,251.174 176.148,250.952 178.502 C 250.784 180.273,250.403 181.466,249.640 182.600 C 243.537 191.675,247.298 203.062,257.599 206.694 C 259.278 207.286,266.249 207.368,266.600 206.800 C 266.736 206.580,267.205 206.400,267.643 206.400 C 272.949 206.400,278.796 196.433,277.653 189.336 C 276.774 183.880,271.265 177.200,267.643 177.200 C 267.205 177.200,266.736 177.020,266.600 176.800 C 266.256 176.243,259.065 176.297,257.817 176.865 C 257.256 177.121,256.662 177.193,256.498 177.025 C 256.122 176.640,258.961 174.151,260.737 173.308 C 263.316 172.084,263.299 169.040,260.710 168.522 C 260.090 168.398,259.486 168.140,259.368 167.948 C 259.250 167.757,258.724 167.600,258.200 167.600 C 257.676 167.600,257.149 167.441,257.029 167.246 C 256.908 167.051,256.313 166.798,255.705 166.684 C 250.624 165.726,250.822 165.070,257.000 162.390 C 263.458 159.588,263.200 159.856,263.200 155.961 C 263.200 152.354,262.980 152.077,259.235 150.977 C 258.006 150.616,256.640 150.177,256.200 150.002 C 255.760 149.828,254.581 149.395,253.581 149.040 L 251.762 148.396 251.058 145.368 C 249.681 139.452,247.193 136.800,243.020 136.800 L 241.200 136.800 241.200 124.243 C 241.200 110.280,241.002 111.200,244.004 111.200 C 246.764 111.200,247.201 110.138,247.195 103.446 C 247.188 96.797,247.058 96.154,245.569 95.384 C 243.911 94.526,227.094 94.564,225.500 95.429 M246.309 103.090 C 246.434 110.909,246.740 110.264,242.800 110.495 L 241.000 110.600 240.895 123.900 L 240.789 137.200 242.407 137.200 C 246.837 137.200,249.468 140.002,250.385 145.699 C 250.767 148.073,251.645 149.600,252.626 149.600 C 253.301 149.600,260.193 151.863,261.311 152.452 C 263.769 153.746,263.295 160.000,260.738 160.000 C 260.332 160.000,260.000 160.180,260.000 160.400 C 260.000 160.620,259.713 160.800,259.362 160.800 C 259.011 160.800,258.246 161.048,257.662 161.351 C 257.078 161.654,256.060 162.126,255.400 162.400 C 254.740 162.674,253.722 163.146,253.138 163.449 C 252.554 163.752,251.564 164.003,250.938 164.006 C 250.312 164.009,249.530 164.187,249.200 164.400 C 248.678 164.737,248.685 164.789,249.251 164.794 C 249.609 164.797,250.126 165.070,250.400 165.400 C 250.674 165.730,251.215 166.000,251.603 166.000 C 251.991 166.000,252.824 166.269,253.454 166.598 C 254.084 166.926,254.904 167.196,255.276 167.198 C 255.648 167.199,256.064 167.380,256.200 167.600 C 256.336 167.820,256.876 168.000,257.400 168.000 C 257.924 168.000,258.464 168.180,258.600 168.400 C 258.736 168.620,259.259 168.800,259.762 168.800 C 261.082 168.800,262.154 170.133,261.840 171.384 C 261.700 171.943,261.404 172.400,261.184 172.400 C 259.954 172.400,256.263 175.491,255.775 176.930 C 255.409 178.007,255.635 178.051,258.149 177.396 C 273.607 173.370,284.166 192.814,272.138 203.155 C 258.688 214.719,240.419 197.623,250.386 182.800 C 251.342 181.379,251.597 180.567,251.598 178.946 C 251.600 176.744,251.878 176.041,253.901 173.128 C 255.316 171.089,255.423 170.800,254.760 170.800 C 254.519 170.800,253.754 170.558,253.060 170.261 C 246.259 167.353,245.050 167.299,244.790 169.890 C 244.452 173.246,246.884 172.977,214.913 173.200 C 187.196 173.394,183.556 173.569,186.678 174.562 C 187.075 174.688,188.120 175.429,189.000 176.208 C 190.417 177.463,190.783 177.601,192.200 177.406 C 199.026 176.470,201.889 176.903,205.661 179.441 C 207.883 180.936,209.983 183.098,209.994 183.900 C 209.997 184.175,210.136 184.400,210.302 184.400 C 210.468 184.400,210.862 185.075,211.177 185.900 C 212.347 188.964,211.674 199.200,210.302 199.200 C 210.136 199.200,210.000 199.441,210.000 199.736 C 210.000 201.311,204.908 205.120,201.366 206.195 C 187.225 210.485,176.238 192.679,186.214 181.637 C 187.999 179.662,188.237 180.024,182.438 175.885 C 179.231 173.596,178.428 173.200,176.997 173.200 C 176.075 173.200,174.798 173.040,174.160 172.844 C 173.522 172.648,171.380 172.005,169.400 171.414 C 167.420 170.824,165.509 170.188,165.153 170.000 C 163.415 169.085,147.177 168.072,145.991 168.806 C 145.513 169.101,145.522 169.349,146.056 170.476 C 147.294 173.091,147.781 175.848,147.288 177.453 C 146.837 178.923,146.851 178.953,148.917 180.971 C 150.063 182.091,151.290 183.636,151.644 184.404 C 151.998 185.172,152.538 186.322,152.844 186.961 C 153.592 188.522,153.592 195.078,152.844 196.639 C 152.538 197.278,151.998 198.426,151.644 199.191 C 146.816 209.620,130.596 209.050,125.123 198.259 C 119.854 187.871,128.129 176.330,140.466 176.857 L 143.800 177.000 143.933 175.835 C 144.006 175.194,143.895 174.294,143.686 173.835 C 142.521 171.271,142.073 170.541,140.704 168.986 C 137.533 165.383,138.492 164.670,146.016 165.043 C 154.576 165.466,155.125 165.069,149.888 162.238 C 146.331 160.316,144.753 159.432,141.530 157.555 C 140.062 156.700,138.667 156.000,138.430 156.000 C 138.194 156.000,138.000 155.841,138.000 155.647 C 138.000 155.452,137.685 155.193,137.300 155.071 C 136.557 154.834,131.480 152.085,129.300 150.738 C 127.623 149.702,127.641 148.798,129.401 145.880 C 130.170 144.604,130.800 143.389,130.800 143.180 C 130.800 142.971,130.980 142.800,131.200 142.800 C 131.420 142.800,131.600 142.611,131.600 142.381 C 131.600 142.150,132.230 140.977,133.000 139.773 C 133.770 138.569,134.400 137.513,134.400 137.426 C 134.400 137.340,135.638 135.228,137.150 132.734 C 140.314 127.517,140.489 127.425,143.968 129.122 C 147.002 130.602,146.800 131.029,146.800 123.147 C 146.800 115.072,146.346 115.600,153.294 115.600 C 159.581 115.600,159.200 115.140,159.200 122.732 L 159.200 128.904 160.667 130.952 C 164.013 135.621,169.701 142.433,170.134 142.291 C 170.390 142.206,170.650 141.701,170.712 141.169 C 170.774 140.636,170.912 139.795,171.020 139.300 L 171.215 138.400 180.528 138.400 C 191.310 138.400,190.800 138.212,190.800 142.191 C 190.800 144.106,191.001 145.310,191.423 145.911 L 192.045 146.800 210.449 146.800 C 222.370 146.800,229.125 146.654,229.626 146.386 C 230.373 145.986,230.400 145.368,230.400 128.819 C 230.400 109.202,230.557 110.400,227.990 110.400 C 224.643 110.400,224.800 110.754,224.800 103.224 C 224.800 99.544,224.923 96.410,225.073 96.260 C 225.223 96.110,230.038 96.035,235.773 96.094 L 246.200 96.200 246.309 103.090 M228.881 99.936 C 228.514 100.173,228.397 101.136,228.481 103.235 L 228.600 106.200 235.600 106.200 L 242.600 106.200 242.600 103.000 L 242.600 99.800 236.000 99.701 C 232.370 99.646,229.167 99.752,228.881 99.936 M234.203 111.675 C 234.079 112.184,234.028 120.070,234.089 129.200 L 234.200 145.800 235.504 145.926 L 236.808 146.051 236.704 128.526 L 236.600 111.000 235.514 110.875 C 234.658 110.776,234.380 110.945,234.203 111.675 M150.886 123.680 L 151.000 127.800 153.087 127.920 C 155.596 128.065,155.699 127.857,155.519 122.999 L 155.400 119.800 153.086 119.680 L 150.772 119.559 150.886 123.680 M150.800 134.509 C 150.800 136.614,150.807 136.625,154.000 139.800 L 157.200 142.981 157.228 152.591 C 157.244 157.876,157.388 162.535,157.549 162.944 C 158.075 164.284,162.485 165.308,169.879 165.808 L 173.558 166.057 183.079 162.845 C 188.316 161.078,197.313 158.023,203.073 156.056 L 213.546 152.478 219.791 154.591 C 223.226 155.753,226.148 156.815,226.285 156.952 C 226.422 157.088,226.917 157.200,227.387 157.200 C 227.856 157.200,228.411 157.354,228.620 157.542 C 228.829 157.730,229.990 158.187,231.200 158.558 C 232.410 158.928,233.760 159.379,234.200 159.561 C 234.985 159.885,238.113 160.893,239.911 161.403 L 240.823 161.661 240.711 156.131 L 240.600 150.600 205.600 150.395 C 186.350 150.281,170.566 150.146,170.523 150.095 C 170.481 150.043,169.590 148.875,168.542 147.500 C 167.494 146.125,166.523 144.910,166.384 144.800 C 166.244 144.690,165.516 143.768,164.765 142.751 C 164.014 141.734,161.903 138.989,160.074 136.651 L 156.748 132.400 153.774 132.400 L 150.800 132.400 150.800 134.509 M140.434 134.806 C 139.755 135.909,139.200 136.896,139.200 136.998 C 139.200 137.101,138.601 138.133,137.868 139.292 C 137.135 140.452,136.414 141.670,136.265 142.000 C 136.116 142.330,135.540 143.320,134.984 144.200 C 134.428 145.080,133.725 146.338,133.423 146.995 L 132.872 148.191 135.536 149.740 C 137.001 150.592,139.370 151.926,140.800 152.704 C 142.230 153.483,144.210 154.566,145.200 155.111 C 150.372 157.958,152.727 159.200,152.951 159.200 C 153.088 159.200,153.200 156.071,153.200 152.247 L 153.200 145.295 150.100 142.004 C 146.712 138.407,146.470 138.017,146.428 136.107 C 146.403 134.968,146.163 134.693,144.413 133.807 C 141.816 132.490,141.867 132.477,140.434 134.806 M241.680 141.680 C 240.821 142.539,241.062 146.000,241.981 146.000 C 243.229 146.000,244.601 146.780,245.016 147.726 C 245.797 149.503,246.611 148.776,246.465 146.432 C 246.228 142.630,243.469 139.891,241.680 141.680 M174.822 142.574 C 174.560 142.889,174.403 143.744,174.473 144.474 L 174.600 145.800 180.800 145.800 L 187.000 145.800 187.133 144.859 C 187.527 142.076,187.365 142.000,181.041 142.000 C 176.540 142.000,175.195 142.124,174.822 142.574 M245.467 153.467 C 244.860 154.073,245.179 159.906,245.833 160.157 C 246.875 160.557,248.608 160.432,249.120 159.920 C 249.617 159.423,249.791 154.962,249.357 153.833 C 249.110 153.189,246.034 152.899,245.467 153.467 M253.600 156.400 C 253.600 158.756,254.004 158.896,256.771 157.496 C 259.110 156.313,259.172 155.851,257.100 155.059 C 254.070 153.902,253.600 154.082,253.600 156.400 M211.928 157.406 C 211.673 157.660,198.002 162.437,195.400 163.181 C 191.242 164.369,180.617 168.298,180.700 168.617 C 180.763 168.857,191.965 169.000,210.700 169.000 L 240.600 169.000 240.600 167.669 C 240.600 166.182,241.133 166.449,232.000 163.360 C 229.690 162.579,227.530 161.836,227.200 161.710 C 218.664 158.450,212.594 156.739,211.928 157.406 M136.166 180.995 C 122.404 185.341,127.048 206.164,140.974 202.555 C 152.606 199.541,152.572 184.050,140.927 181.033 C 138.138 180.310,138.330 180.312,136.166 180.995 M196.200 180.677 C 193.197 181.367,192.219 181.800,190.384 183.251 C 179.881 191.553,190.741 207.639,202.678 201.463 C 208.989 198.198,210.192 188.649,204.917 183.699 C 203.412 182.287,198.438 180.193,197.200 180.451 C 197.090 180.474,196.640 180.576,196.200 180.677 M259.766 180.995 C 248.240 184.635,248.441 199.204,260.065 202.656 C 263.606 203.708,268.537 201.827,271.139 198.431 C 277.287 190.408,269.204 178.015,259.766 180.995 " stroke="none" fill="#32423c" fill-rule="evenodd"></path><path id="path1" d="M189.600 46.000 C 189.600 46.241,187.929 46.400,185.387 46.400 C 182.012 46.400,181.129 46.519,180.945 47.000 C 180.776 47.439,180.084 47.600,178.357 47.600 C 177.052 47.600,176.000 47.779,176.000 48.000 C 176.000 48.222,174.933 48.400,173.600 48.400 C 172.267 48.400,171.200 48.578,171.200 48.800 C 171.200 49.020,170.654 49.200,169.987 49.200 C 169.279 49.200,168.679 49.449,168.545 49.800 C 168.389 50.206,167.753 50.400,166.581 50.400 C 165.627 50.400,164.736 50.580,164.600 50.800 C 164.464 51.020,163.818 51.200,163.164 51.200 C 162.476 51.200,161.878 51.453,161.745 51.800 C 161.603 52.170,160.995 52.400,160.157 52.400 C 159.411 52.400,158.800 52.580,158.800 52.800 C 158.800 53.020,158.350 53.200,157.800 53.200 C 157.250 53.200,156.800 53.380,156.800 53.600 C 156.800 53.820,156.363 54.000,155.829 54.000 C 155.294 54.000,154.587 54.270,154.257 54.600 C 153.927 54.930,153.284 55.200,152.829 55.200 C 152.373 55.200,152.000 55.380,152.000 55.600 C 152.000 55.820,151.634 56.000,151.187 56.000 C 150.741 56.000,150.271 56.270,150.145 56.600 C 150.018 56.930,149.574 57.200,149.157 57.200 C 148.741 57.200,148.400 57.380,148.400 57.600 C 148.400 57.820,147.950 58.000,147.400 58.000 C 146.850 58.000,146.400 58.180,146.400 58.400 C 146.400 58.620,146.034 58.800,145.587 58.800 C 145.141 58.800,144.671 59.070,144.545 59.400 C 144.418 59.730,143.961 60.000,143.529 60.000 C 142.679 60.000,141.600 60.879,141.600 61.571 C 141.600 61.807,141.150 62.000,140.600 62.000 C 140.050 62.000,139.600 62.180,139.600 62.400 C 139.600 62.620,139.285 62.806,138.900 62.813 C 138.035 62.828,136.800 63.729,136.800 64.344 C 136.800 64.595,136.427 64.800,135.971 64.800 C 135.086 64.800,134.000 65.666,134.000 66.371 C 134.000 66.607,133.550 66.800,133.000 66.800 C 132.450 66.800,132.000 66.980,132.000 67.200 C 132.000 67.420,131.807 67.600,131.571 67.600 C 131.018 67.600,130.000 68.618,130.000 69.171 C 130.000 69.407,129.627 69.600,129.171 69.600 C 128.286 69.600,127.200 70.466,127.200 71.171 C 127.200 71.407,127.012 71.600,126.782 71.600 C 126.239 71.600,124.400 73.439,124.400 73.982 C 124.400 74.212,124.130 74.400,123.800 74.400 C 123.470 74.400,123.200 74.580,123.200 74.800 C 123.200 75.020,122.938 75.200,122.618 75.200 C 121.720 75.200,114.800 82.285,114.800 83.204 C 114.800 83.642,114.607 84.000,114.371 84.000 C 113.818 84.000,112.800 85.018,112.800 85.571 C 112.800 85.807,112.596 86.000,112.347 86.000 C 111.685 86.000,110.001 88.082,110.000 88.900 C 110.000 89.285,109.730 89.600,109.400 89.600 C 109.070 89.600,108.800 89.793,108.800 90.029 C 108.800 90.582,107.782 91.600,107.229 91.600 C 106.993 91.600,106.800 92.010,106.800 92.512 C 106.800 93.013,106.440 93.683,106.000 94.000 C 105.560 94.317,105.200 94.807,105.200 95.088 C 105.200 95.370,104.930 95.600,104.600 95.600 C 104.267 95.600,104.000 95.956,104.000 96.400 C 104.000 96.840,103.820 97.200,103.600 97.200 C 103.380 97.200,103.200 97.470,103.200 97.800 C 103.200 98.130,103.023 98.400,102.808 98.400 C 102.592 98.400,102.302 98.850,102.164 99.400 C 102.026 99.950,101.753 100.400,101.557 100.400 C 101.360 100.400,101.200 100.760,101.200 101.200 C 101.200 101.640,101.020 102.000,100.800 102.000 C 100.580 102.000,100.400 102.270,100.400 102.600 C 100.400 102.930,100.130 103.200,99.800 103.200 C 99.427 103.200,99.200 103.578,99.200 104.200 C 99.200 104.750,99.020 105.200,98.800 105.200 C 98.580 105.200,98.400 105.541,98.400 105.957 C 98.400 106.374,98.130 106.818,97.800 106.945 C 97.470 107.071,97.200 107.541,97.200 107.987 C 97.200 108.434,97.020 108.800,96.800 108.800 C 96.580 108.800,96.400 109.250,96.400 109.800 C 96.400 110.350,96.220 110.800,96.000 110.800 C 95.780 110.800,95.600 111.250,95.600 111.800 C 95.600 112.422,95.373 112.800,95.000 112.800 C 94.581 112.800,94.400 113.222,94.400 114.200 C 94.400 114.970,94.220 115.600,94.000 115.600 C 93.780 115.600,93.600 116.031,93.600 116.557 C 93.600 117.084,93.330 117.618,93.000 117.745 C 92.649 117.879,92.400 118.479,92.400 119.187 C 92.400 119.854,92.220 120.400,92.000 120.400 C 91.780 120.400,91.600 121.030,91.600 121.800 C 91.600 122.570,91.420 123.200,91.200 123.200 C 90.980 123.200,90.800 123.830,90.800 124.600 C 90.800 125.578,90.619 126.000,90.200 126.000 C 89.783 126.000,89.600 126.420,89.600 127.376 C 89.600 128.133,89.420 128.864,89.200 129.000 C 88.980 129.136,88.800 130.027,88.800 130.981 C 88.800 132.153,88.606 132.789,88.200 132.945 C 87.767 133.111,87.600 133.790,87.600 135.387 C 87.600 136.604,87.420 137.600,87.200 137.600 C 86.978 137.600,86.800 138.667,86.800 140.000 C 86.800 141.333,86.622 142.400,86.400 142.400 C 86.156 142.400,86.000 144.267,86.000 147.200 C 86.000 151.200,85.900 152.000,85.400 152.000 C 84.889 152.000,84.800 153.067,84.800 159.200 C 84.800 165.333,84.889 166.400,85.400 166.400 C 85.891 166.400,86.000 167.089,86.000 170.200 C 86.000 172.467,86.161 174.000,86.400 174.000 C 86.622 174.000,86.800 175.067,86.800 176.400 C 86.800 177.733,86.978 178.800,87.200 178.800 C 87.420 178.800,87.600 179.507,87.600 180.371 C 87.600 181.236,87.870 182.213,88.200 182.543 C 88.530 182.873,88.800 183.696,88.800 184.371 C 88.800 185.047,88.980 185.600,89.200 185.600 C 89.420 185.600,89.600 186.410,89.600 187.400 C 89.600 188.733,89.756 189.200,90.200 189.200 C 90.633 189.200,90.800 189.644,90.800 190.800 C 90.800 191.680,90.980 192.400,91.200 192.400 C 91.420 192.400,91.600 193.030,91.600 193.800 C 91.600 194.570,91.780 195.200,92.000 195.200 C 92.220 195.200,92.400 195.637,92.400 196.171 C 92.400 196.706,92.670 197.413,93.000 197.743 C 93.330 198.073,93.600 198.716,93.600 199.171 C 93.600 199.627,93.780 200.000,94.000 200.000 C 94.220 200.000,94.400 200.630,94.400 201.400 C 94.400 202.378,94.581 202.800,95.000 202.800 C 95.373 202.800,95.600 203.178,95.600 203.800 C 95.600 204.350,95.780 204.800,96.000 204.800 C 96.220 204.800,96.400 205.430,96.400 206.200 C 96.400 206.970,96.580 207.600,96.800 207.600 C 97.020 207.600,97.200 207.966,97.200 208.413 C 97.200 208.859,97.470 209.329,97.800 209.455 C 98.130 209.582,98.400 210.116,98.400 210.643 C 98.400 211.169,98.580 211.600,98.800 211.600 C 99.020 211.600,99.200 211.960,99.200 212.400 C 99.200 212.844,99.467 213.200,99.800 213.200 C 100.219 213.200,100.400 213.622,100.400 214.600 C 100.400 215.370,100.580 216.000,100.800 216.000 C 101.020 216.000,101.200 216.450,101.200 217.000 C 101.200 217.550,101.380 218.000,101.600 218.000 C 101.820 218.000,102.000 218.366,102.000 218.813 C 102.000 219.259,102.270 219.729,102.600 219.855 C 102.930 219.982,103.200 220.516,103.200 221.043 C 103.200 221.569,103.380 222.000,103.600 222.000 C 103.820 222.000,104.000 222.366,104.000 222.813 C 104.000 223.259,104.270 223.729,104.600 223.855 C 104.930 223.982,105.200 224.416,105.200 224.819 C 105.200 225.223,105.380 225.664,105.600 225.800 C 105.820 225.936,106.000 226.397,106.000 226.824 C 106.000 227.251,106.160 227.600,106.357 227.600 C 106.553 227.600,106.826 228.050,106.964 228.600 C 107.102 229.150,107.392 229.600,107.608 229.600 C 107.823 229.600,108.000 230.050,108.000 230.600 C 108.000 231.150,108.180 231.600,108.400 231.600 C 108.620 231.600,108.800 231.935,108.800 232.344 C 108.800 232.753,109.250 233.426,109.800 233.839 C 110.351 234.253,110.800 234.996,110.800 235.495 C 110.800 235.993,110.980 236.400,111.200 236.400 C 111.420 236.400,111.600 236.766,111.600 237.213 C 111.600 237.659,111.870 238.129,112.200 238.255 C 112.530 238.382,112.800 238.826,112.800 239.243 C 112.800 239.659,112.980 240.000,113.200 240.000 C 113.420 240.000,113.600 240.450,113.600 241.000 C 113.600 241.622,113.827 242.000,114.200 242.000 C 114.530 242.000,114.800 242.270,114.800 242.600 C 114.800 242.930,114.980 243.200,115.200 243.200 C 115.420 243.200,115.600 243.560,115.600 244.000 C 115.600 244.440,115.780 244.800,116.000 244.800 C 116.220 244.800,116.400 245.166,116.400 245.613 C 116.400 246.059,116.670 246.529,117.000 246.655 C 117.330 246.782,117.600 247.239,117.600 247.671 C 117.600 248.521,118.479 249.600,119.171 249.600 C 119.407 249.600,119.600 250.050,119.600 250.600 C 119.600 251.150,119.780 251.600,120.000 251.600 C 120.220 251.600,120.400 251.973,120.400 252.429 C 120.400 253.314,121.266 254.400,121.971 254.400 C 122.207 254.400,122.400 254.850,122.400 255.400 C 122.400 255.950,122.580 256.400,122.800 256.400 C 123.020 256.400,123.200 256.735,123.200 257.144 C 123.200 257.553,123.650 258.226,124.200 258.639 C 124.750 259.052,125.200 259.732,125.200 260.149 C 125.200 260.567,125.650 261.325,126.200 261.835 C 126.750 262.345,127.200 263.040,127.200 263.381 C 127.200 263.721,127.380 264.000,127.600 264.000 C 127.820 264.000,128.000 264.450,128.000 265.000 C 128.000 265.622,128.227 266.000,128.600 266.000 C 128.930 266.000,129.200 266.270,129.200 266.600 C 129.200 266.930,129.380 267.200,129.600 267.200 C 129.820 267.200,130.000 267.560,130.000 268.000 C 130.000 268.440,130.180 268.800,130.400 268.800 C 130.620 268.800,130.800 269.070,130.800 269.400 C 130.800 269.730,131.070 270.000,131.400 270.000 C 131.730 270.000,132.006 270.315,132.013 270.700 C 132.028 271.565,132.929 272.800,133.544 272.800 C 133.795 272.800,134.000 273.210,134.000 273.712 C 134.000 274.213,134.360 274.883,134.800 275.200 C 135.240 275.517,135.600 276.187,135.600 276.688 C 135.600 277.232,135.842 277.600,136.200 277.600 C 136.540 277.600,136.800 277.959,136.800 278.429 C 136.800 279.314,137.666 280.400,138.371 280.400 C 138.607 280.400,138.800 280.810,138.800 281.312 C 138.800 281.813,139.160 282.483,139.600 282.800 C 140.040 283.117,140.400 283.607,140.400 283.888 C 140.400 284.170,140.670 284.400,141.000 284.400 C 141.330 284.400,141.606 284.715,141.613 285.100 C 141.628 285.965,142.529 287.200,143.144 287.200 C 143.395 287.200,143.600 287.610,143.600 288.112 C 143.600 288.613,143.960 289.283,144.400 289.600 C 144.840 289.917,145.200 290.472,145.200 290.832 C 145.200 291.193,145.650 291.826,146.200 292.239 C 146.751 292.653,147.200 293.396,147.200 293.895 C 147.200 294.433,147.443 294.800,147.800 294.800 C 148.130 294.800,148.400 295.030,148.400 295.312 C 148.400 295.593,148.760 296.083,149.200 296.400 C 149.640 296.717,150.000 297.272,150.000 297.632 C 150.000 297.993,150.450 298.626,151.000 299.039 C 151.550 299.452,152.000 300.082,152.000 300.439 C 152.000 300.796,152.450 301.426,153.000 301.839 C 153.550 302.252,154.000 302.817,154.000 303.095 C 154.000 303.373,154.180 303.600,154.400 303.600 C 154.620 303.600,154.800 303.960,154.800 304.400 C 154.800 304.844,155.067 305.200,155.400 305.200 C 155.730 305.200,156.000 305.470,156.000 305.800 C 156.000 306.130,156.180 306.400,156.400 306.400 C 156.620 306.400,156.800 306.717,156.800 307.104 C 156.800 307.491,157.426 308.346,158.191 309.004 C 158.957 309.662,159.587 310.521,159.591 310.913 C 159.596 311.304,159.870 311.729,160.200 311.855 C 160.530 311.982,160.800 312.255,160.800 312.461 C 160.800 312.667,161.250 313.286,161.800 313.836 C 162.350 314.386,162.800 315.023,162.800 315.252 C 162.800 315.480,163.430 316.279,164.200 317.026 C 164.970 317.774,165.600 318.659,165.600 318.993 C 165.600 319.327,165.780 319.600,166.000 319.600 C 166.220 319.600,166.400 319.840,166.400 320.132 C 166.400 320.425,166.850 320.906,167.400 321.200 C 167.950 321.494,168.400 321.975,168.400 322.268 C 168.400 322.560,168.580 322.800,168.800 322.800 C 169.020 322.800,169.200 323.160,169.200 323.600 C 169.200 324.044,169.467 324.400,169.800 324.400 C 170.130 324.400,170.400 324.595,170.400 324.833 C 170.400 325.072,171.030 325.879,171.800 326.626 C 172.570 327.374,173.200 328.259,173.200 328.593 C 173.200 328.927,173.380 329.200,173.600 329.200 C 173.820 329.200,174.000 329.470,174.000 329.800 C 174.000 330.130,174.193 330.400,174.429 330.400 C 174.888 330.400,176.000 331.382,176.000 331.788 C 176.000 332.023,176.414 332.574,177.500 333.785 C 177.775 334.092,178.000 334.459,178.000 334.600 C 178.000 335.015,179.105 336.000,179.571 336.000 C 179.807 336.000,180.000 336.270,180.000 336.600 C 180.000 336.930,180.180 337.200,180.400 337.200 C 180.620 337.200,180.800 337.560,180.800 338.000 C 180.800 338.444,181.067 338.800,181.400 338.800 C 181.730 338.800,182.000 338.996,182.000 339.235 C 182.000 339.474,182.990 340.636,184.200 341.817 C 185.410 342.999,186.400 344.153,186.400 344.383 C 186.400 344.612,186.670 344.800,187.000 344.800 C 187.330 344.800,187.600 345.094,187.600 345.453 C 187.600 345.812,188.230 346.700,189.000 347.426 C 189.770 348.152,190.400 348.938,190.400 349.173 C 190.400 349.408,190.550 349.600,190.734 349.600 C 190.918 349.600,191.890 350.410,192.894 351.400 C 193.898 352.390,194.989 353.200,195.317 353.200 C 195.646 353.200,196.018 353.470,196.145 353.800 C 196.271 354.130,196.741 354.400,197.187 354.400 C 197.634 354.400,198.000 354.580,198.000 354.800 C 198.000 355.020,198.900 355.200,200.000 355.200 C 201.100 355.200,202.000 355.020,202.000 354.800 C 202.000 354.580,202.317 354.400,202.704 354.400 C 203.091 354.400,203.946 353.774,204.604 353.009 C 205.262 352.243,206.025 351.613,206.300 351.609 C 206.575 351.604,206.800 351.407,206.800 351.171 C 206.800 350.618,207.818 349.600,208.371 349.600 C 208.607 349.600,208.800 349.412,208.800 349.182 C 208.800 348.639,210.639 346.800,211.182 346.800 C 211.412 346.800,211.600 346.620,211.600 346.400 C 211.600 346.180,212.680 344.920,214.000 343.600 C 215.320 342.280,216.400 340.930,216.400 340.600 C 216.400 340.270,216.580 340.000,216.800 340.000 C 217.020 340.000,217.200 339.730,217.200 339.400 C 217.200 339.070,217.388 338.800,217.618 338.800 C 218.124 338.800,220.000 336.978,220.000 336.486 C 220.000 336.293,220.450 335.894,221.000 335.600 C 221.628 335.264,222.000 334.718,222.000 334.132 C 222.000 333.620,222.193 333.200,222.429 333.200 C 222.936 333.200,224.000 332.200,224.000 331.724 C 224.000 331.540,224.450 331.052,225.000 330.639 C 225.550 330.226,226.000 329.636,226.000 329.329 C 226.000 329.022,226.810 327.983,227.800 327.021 C 228.801 326.048,229.600 324.900,229.600 324.436 C 229.600 323.976,229.793 323.600,230.029 323.600 C 230.582 323.600,231.600 322.582,231.600 322.029 C 231.600 321.793,231.768 321.600,231.973 321.600 C 232.178 321.600,232.475 321.195,232.632 320.700 C 232.789 320.205,233.521 319.248,234.259 318.572 C 234.996 317.896,235.600 317.041,235.600 316.672 C 235.600 316.302,235.780 316.000,236.000 316.000 C 236.220 316.000,236.400 315.730,236.400 315.400 C 236.400 315.070,236.593 314.800,236.829 314.800 C 237.476 314.800,238.400 313.742,238.400 313.000 C 238.400 312.258,239.324 311.200,239.971 311.200 C 240.207 311.200,240.400 310.930,240.400 310.600 C 240.400 310.270,240.580 310.000,240.800 310.000 C 241.020 310.000,241.200 309.640,241.200 309.200 C 241.200 308.756,241.467 308.400,241.800 308.400 C 242.130 308.400,242.400 308.170,242.400 307.888 C 242.400 307.607,242.760 307.117,243.200 306.800 C 243.640 306.483,244.000 305.813,244.000 305.312 C 244.000 304.810,244.193 304.400,244.429 304.400 C 244.982 304.400,246.000 303.382,246.000 302.829 C 246.000 302.593,246.139 302.400,246.309 302.400 C 246.479 302.400,246.957 301.770,247.372 301.000 C 247.787 300.230,248.278 299.600,248.463 299.600 C 248.648 299.600,248.800 299.150,248.800 298.600 C 248.800 298.050,248.993 297.600,249.229 297.600 C 249.782 297.600,250.800 296.582,250.800 296.029 C 250.800 295.793,250.980 295.600,251.200 295.600 C 251.420 295.600,251.600 295.240,251.600 294.800 C 251.600 294.356,251.867 294.000,252.200 294.000 C 252.530 294.000,252.800 293.730,252.800 293.400 C 252.800 293.070,252.980 292.800,253.200 292.800 C 253.420 292.800,253.600 292.521,253.600 292.181 C 253.600 291.840,254.050 291.145,254.600 290.635 C 255.150 290.125,255.600 289.401,255.600 289.026 C 255.600 288.262,256.514 287.200,257.171 287.200 C 257.407 287.200,257.600 286.828,257.600 286.373 C 257.600 285.918,258.230 284.952,259.000 284.226 C 259.770 283.500,260.400 282.612,260.400 282.253 C 260.400 281.894,260.580 281.600,260.800 281.600 C 261.020 281.600,261.200 281.330,261.200 281.000 C 261.200 280.670,261.470 280.400,261.800 280.400 C 262.157 280.400,262.400 280.033,262.400 279.495 C 262.400 278.996,262.849 278.253,263.400 277.839 C 263.950 277.426,264.400 276.753,264.400 276.344 C 264.400 275.935,264.580 275.600,264.800 275.600 C 265.020 275.600,265.200 275.227,265.200 274.771 C 265.200 273.886,266.066 272.800,266.771 272.800 C 267.007 272.800,267.200 272.393,267.200 271.895 C 267.200 271.396,267.649 270.653,268.200 270.239 C 268.750 269.826,269.200 269.236,269.200 268.927 C 269.200 268.619,269.560 267.980,270.000 267.508 C 270.440 267.036,270.800 266.323,270.800 265.925 C 270.800 265.526,271.070 265.200,271.400 265.200 C 271.730 265.200,272.000 264.930,272.000 264.600 C 272.000 264.270,272.180 264.000,272.400 264.000 C 272.620 264.000,272.800 263.659,272.800 263.243 C 272.800 262.826,273.070 262.382,273.400 262.255 C 273.730 262.129,274.000 261.659,274.000 261.213 C 274.000 260.766,274.180 260.400,274.400 260.400 C 274.620 260.400,274.800 260.130,274.800 259.800 C 274.800 259.470,274.980 259.200,275.200 259.200 C 275.420 259.200,275.600 258.859,275.600 258.443 C 275.600 258.026,275.870 257.582,276.200 257.455 C 276.530 257.329,276.800 256.859,276.800 256.413 C 276.800 255.966,276.980 255.600,277.200 255.600 C 277.420 255.600,277.600 255.349,277.600 255.043 C 277.600 254.736,277.870 254.382,278.200 254.255 C 278.530 254.129,278.800 253.749,278.800 253.413 C 278.800 253.076,278.980 252.800,279.200 252.800 C 279.420 252.800,279.600 252.350,279.600 251.800 C 279.600 251.250,279.780 250.800,280.000 250.800 C 280.220 250.800,280.400 250.530,280.400 250.200 C 280.400 249.870,280.670 249.600,281.000 249.600 C 281.333 249.600,281.600 249.244,281.600 248.800 C 281.600 248.360,281.780 248.000,282.000 248.000 C 282.220 248.000,282.400 247.550,282.400 247.000 C 282.400 246.378,282.627 246.000,283.000 246.000 C 283.330 246.000,283.600 245.730,283.600 245.400 C 283.600 245.070,283.780 244.800,284.000 244.800 C 284.220 244.800,284.400 244.451,284.400 244.024 C 284.400 243.597,284.580 243.136,284.800 243.000 C 285.020 242.864,285.200 242.403,285.200 241.976 C 285.200 241.549,285.470 241.200,285.800 241.200 C 286.173 241.200,286.400 240.822,286.400 240.200 C 286.400 239.650,286.580 239.200,286.800 239.200 C 287.020 239.200,287.200 238.750,287.200 238.200 C 287.200 237.650,287.393 237.200,287.629 237.200 C 288.334 237.200,289.200 236.114,289.200 235.229 C 289.200 234.773,289.380 234.400,289.600 234.400 C 289.820 234.400,290.000 233.950,290.000 233.400 C 290.000 232.778,290.227 232.400,290.600 232.400 C 290.930 232.400,291.200 232.051,291.200 231.624 C 291.200 231.197,291.380 230.736,291.600 230.600 C 291.820 230.464,292.000 230.023,292.000 229.619 C 292.000 229.216,292.270 228.782,292.600 228.655 C 292.930 228.529,293.200 228.059,293.200 227.613 C 293.200 227.166,293.380 226.800,293.600 226.800 C 293.820 226.800,294.000 226.350,294.000 225.800 C 294.000 225.250,294.180 224.800,294.400 224.800 C 294.620 224.800,294.800 224.350,294.800 223.800 C 294.800 223.178,295.027 222.800,295.400 222.800 C 295.733 222.800,296.000 222.444,296.000 222.000 C 296.000 221.560,296.180 221.200,296.400 221.200 C 296.620 221.200,296.800 220.769,296.800 220.243 C 296.800 219.716,297.070 219.182,297.400 219.055 C 297.730 218.929,298.000 218.459,298.000 218.013 C 298.000 217.566,298.180 217.200,298.400 217.200 C 298.620 217.200,298.800 216.750,298.800 216.200 C 298.800 215.650,298.980 215.200,299.200 215.200 C 299.420 215.200,299.600 214.750,299.600 214.200 C 299.600 213.578,299.827 213.200,300.200 213.200 C 300.619 213.200,300.800 212.778,300.800 211.800 C 300.800 211.030,300.980 210.400,301.200 210.400 C 301.420 210.400,301.600 209.950,301.600 209.400 C 301.600 208.778,301.827 208.400,302.200 208.400 C 302.530 208.400,302.800 208.051,302.800 207.624 C 302.800 207.197,302.980 206.736,303.200 206.600 C 303.420 206.464,303.600 205.733,303.600 204.976 C 303.600 204.219,303.780 203.600,304.000 203.600 C 304.220 203.600,304.400 203.259,304.400 202.843 C 304.400 202.426,304.670 201.982,305.000 201.855 C 305.377 201.711,305.600 201.099,305.600 200.213 C 305.600 199.436,305.780 198.800,306.000 198.800 C 306.220 198.800,306.406 198.485,306.413 198.100 C 306.420 197.715,306.690 197.051,307.013 196.624 C 307.336 196.196,307.600 195.431,307.600 194.924 C 307.600 194.416,307.780 194.000,308.000 194.000 C 308.220 194.000,308.400 193.370,308.400 192.600 C 308.400 191.830,308.580 191.200,308.800 191.200 C 309.020 191.200,309.200 190.570,309.200 189.800 C 309.200 188.822,309.381 188.400,309.800 188.400 C 310.253 188.400,310.400 187.911,310.400 186.400 C 310.400 185.300,310.580 184.400,310.800 184.400 C 311.020 184.400,311.200 183.847,311.200 183.171 C 311.200 182.496,311.470 181.673,311.800 181.343 C 312.171 180.972,312.400 179.990,312.400 178.771 C 312.400 177.687,312.580 176.800,312.800 176.800 C 313.022 176.800,313.200 175.733,313.200 174.400 C 313.200 173.067,313.378 172.000,313.600 172.000 C 313.859 172.000,314.000 167.267,314.000 158.600 C 314.000 149.933,313.859 145.200,313.600 145.200 C 313.367 145.200,313.200 143.867,313.200 142.000 C 313.200 140.133,313.033 138.800,312.800 138.800 C 312.580 138.800,312.400 137.934,312.400 136.876 C 312.400 135.804,312.140 134.609,311.813 134.176 C 311.490 133.749,311.220 132.635,311.213 131.700 C 311.206 130.765,311.020 130.000,310.800 130.000 C 310.580 130.000,310.400 129.370,310.400 128.600 C 310.400 127.622,310.219 127.200,309.800 127.200 C 309.367 127.200,309.200 126.756,309.200 125.600 C 309.200 124.720,309.020 124.000,308.800 124.000 C 308.580 124.000,308.400 123.370,308.400 122.600 C 308.400 121.830,308.220 121.200,308.000 121.200 C 307.780 121.200,307.600 120.654,307.600 119.987 C 307.600 119.279,307.351 118.679,307.000 118.545 C 306.630 118.403,306.400 117.795,306.400 116.957 C 306.400 116.211,306.220 115.600,306.000 115.600 C 305.780 115.600,305.600 115.150,305.600 114.600 C 305.600 113.978,305.373 113.600,305.000 113.600 C 304.627 113.600,304.400 113.222,304.400 112.600 C 304.400 112.050,304.220 111.600,304.000 111.600 C 303.780 111.600,303.600 111.240,303.600 110.800 C 303.600 110.360,303.420 110.000,303.200 110.000 C 302.980 110.000,302.800 109.550,302.800 109.000 C 302.800 108.378,302.573 108.000,302.200 108.000 C 301.827 108.000,301.600 107.622,301.600 107.000 C 301.600 106.450,301.420 106.000,301.200 106.000 C 300.980 106.000,300.800 105.550,300.800 105.000 C 300.800 104.378,300.573 104.000,300.200 104.000 C 299.870 104.000,299.600 103.674,299.600 103.275 C 299.600 102.877,299.240 102.164,298.800 101.692 C 298.360 101.220,298.000 100.550,298.000 100.204 C 298.000 99.858,297.730 99.471,297.400 99.345 C 297.070 99.218,296.794 98.819,296.787 98.457 C 296.771 97.628,295.857 96.400,295.256 96.400 C 295.005 96.400,294.800 96.025,294.800 95.567 C 294.800 95.108,294.170 94.121,293.400 93.374 C 292.630 92.626,292.000 91.741,292.000 91.407 C 292.000 91.073,291.820 90.800,291.600 90.800 C 291.380 90.800,291.200 90.530,291.200 90.200 C 291.200 89.870,291.007 89.600,290.771 89.600 C 290.124 89.600,289.200 88.542,289.200 87.800 C 289.200 87.058,288.276 86.000,287.629 86.000 C 287.393 86.000,287.200 85.807,287.200 85.571 C 287.200 85.018,286.182 84.000,285.629 84.000 C 285.393 84.000,285.200 83.812,285.200 83.582 C 285.200 83.039,283.361 81.200,282.818 81.200 C 282.588 81.200,282.400 81.007,282.400 80.771 C 282.400 80.218,281.382 79.200,280.829 79.200 C 280.593 79.200,280.400 79.012,280.400 78.782 C 280.400 78.239,278.561 76.400,278.018 76.400 C 277.788 76.400,277.600 76.207,277.600 75.971 C 277.600 75.418,276.582 74.400,276.029 74.400 C 275.793 74.400,275.600 74.196,275.600 73.947 C 275.600 73.285,273.518 71.601,272.700 71.600 C 272.315 71.600,272.000 71.330,272.000 71.000 C 272.000 70.670,271.807 70.400,271.571 70.400 C 271.090 70.400,270.000 69.410,270.000 68.973 C 270.000 68.502,268.648 67.626,267.900 67.613 C 267.515 67.606,267.200 67.420,267.200 67.200 C 267.200 66.980,266.930 66.800,266.600 66.800 C 266.270 66.800,266.000 66.530,266.000 66.200 C 266.000 65.867,265.644 65.600,265.200 65.600 C 264.760 65.600,264.400 65.420,264.400 65.200 C 264.400 64.980,264.149 64.800,263.843 64.800 C 263.536 64.800,263.182 64.530,263.055 64.200 C 262.929 63.870,262.499 63.600,262.101 63.600 C 261.703 63.600,261.117 63.240,260.800 62.800 C 260.483 62.360,259.813 62.000,259.312 62.000 C 258.768 62.000,258.400 61.758,258.400 61.400 C 258.400 61.062,258.042 60.800,257.582 60.800 C 257.132 60.800,256.314 60.350,255.764 59.800 C 255.214 59.250,254.502 58.800,254.182 58.800 C 253.862 58.800,253.600 58.620,253.600 58.400 C 253.600 58.180,253.150 58.000,252.600 58.000 C 252.050 58.000,251.600 57.820,251.600 57.600 C 251.600 57.380,251.259 57.200,250.843 57.200 C 250.426 57.200,249.982 56.930,249.855 56.600 C 249.729 56.270,249.259 56.000,248.813 56.000 C 248.366 56.000,248.000 55.820,248.000 55.600 C 248.000 55.380,247.389 55.200,246.643 55.200 C 245.805 55.200,245.197 54.970,245.055 54.600 C 244.929 54.270,244.459 54.000,244.013 54.000 C 243.566 54.000,243.200 53.820,243.200 53.600 C 243.200 53.380,242.570 53.200,241.800 53.200 C 241.030 53.200,240.400 53.020,240.400 52.800 C 240.400 52.580,239.789 52.400,239.043 52.400 C 238.205 52.400,237.597 52.170,237.455 51.800 C 237.311 51.423,236.699 51.200,235.813 51.200 C 235.036 51.200,234.400 51.020,234.400 50.800 C 234.400 50.580,233.789 50.400,233.043 50.400 C 232.205 50.400,231.597 50.170,231.455 49.800 C 231.304 49.406,230.680 49.200,229.636 49.200 C 228.762 49.200,227.936 49.020,227.800 48.800 C 227.664 48.580,226.753 48.400,225.776 48.400 C 224.799 48.400,224.000 48.220,224.000 48.000 C 224.000 47.772,222.814 47.600,221.243 47.600 C 219.161 47.600,218.429 47.453,218.255 47.000 C 218.073 46.525,217.232 46.400,214.213 46.400 C 211.938 46.400,210.400 46.239,210.400 46.000 C 210.400 45.744,206.667 45.600,200.000 45.600 C 193.333 45.600,189.600 45.744,189.600 46.000 M213.045 55.194 C 218.167 56.002,220.591 56.441,223.200 57.033 C 227.376 57.980,233.368 59.696,233.780 60.062 C 233.989 60.248,234.538 60.400,235.000 60.400 C 235.462 60.400,236.011 60.550,236.220 60.734 C 236.429 60.918,237.500 61.397,238.600 61.800 C 240.657 62.552,246.079 64.925,247.270 65.593 C 247.639 65.800,249.349 66.720,251.070 67.637 C 260.748 72.792,273.104 82.836,280.047 91.190 C 281.231 92.615,282.428 94.026,282.708 94.327 C 283.399 95.070,288.423 102.193,289.761 104.326 C 294.622 112.079,298.428 120.542,301.578 130.600 C 304.751 140.730,306.725 158.245,305.583 166.123 C 304.285 175.074,300.354 190.079,298.019 195.000 C 297.811 195.440,296.985 197.420,296.186 199.400 C 295.386 201.380,294.495 203.540,294.206 204.200 C 293.917 204.860,293.261 206.390,292.749 207.600 C 291.037 211.642,281.386 230.521,277.695 237.048 C 271.290 248.372,260.997 265.237,260.309 265.533 C 260.139 265.607,260.000 265.807,260.000 265.978 C 260.000 266.861,242.250 292.650,234.175 303.498 C 227.609 312.319,216.133 327.148,215.213 328.000 C 215.095 328.110,213.656 329.820,212.016 331.800 C 210.376 333.780,208.936 335.490,208.817 335.600 C 208.698 335.710,207.902 336.610,207.049 337.600 C 204.669 340.363,200.313 344.800,199.980 344.800 C 199.265 344.800,195.354 340.783,190.400 334.961 C 189.850 334.315,188.482 332.709,187.359 331.393 C 171.277 312.537,145.793 276.766,130.671 251.823 C 130.412 251.396,129.630 250.123,128.932 248.993 C 128.235 247.864,127.309 246.307,126.875 245.533 C 126.440 244.759,124.652 241.622,122.902 238.563 C 117.095 228.409,106.400 207.428,106.400 206.188 C 106.400 206.098,105.940 204.983,105.377 203.712 C 104.815 202.440,104.203 201.040,104.018 200.600 C 102.951 198.062,102.467 196.852,102.020 195.600 C 101.744 194.830,101.362 193.840,101.169 193.400 C 100.976 192.960,100.084 190.358,99.186 187.618 C 93.484 170.227,92.626 157.494,95.948 139.600 C 96.299 137.711,96.816 135.703,98.782 128.600 C 100.998 120.592,106.999 108.451,112.917 100.000 C 119.761 90.227,127.876 81.927,137.823 74.525 C 139.468 73.301,144.429 70.000,144.624 70.000 C 144.712 70.000,145.733 69.400,146.892 68.667 C 148.691 67.529,156.061 63.840,158.600 62.807 C 159.040 62.628,160.030 62.212,160.800 61.882 C 168.739 58.481,182.248 55.362,192.200 54.631 C 195.846 54.363,210.243 54.752,213.045 55.194 " stroke="none" fill="#333333" fill-rule="evenodd"></path><path id="path2" d="M192.200 54.631 C 182.248 55.362,168.739 58.481,160.800 61.882 C 160.030 62.212,159.040 62.628,158.600 62.807 C 156.061 63.840,148.691 67.529,146.892 68.667 C 145.733 69.400,144.712 70.000,144.624 70.000 C 144.429 70.000,139.468 73.301,137.823 74.525 C 127.876 81.927,119.761 90.227,112.917 100.000 C 106.999 108.451,100.998 120.592,98.782 128.600 C 96.816 135.703,96.299 137.711,95.948 139.600 C 92.626 157.494,93.484 170.227,99.186 187.618 C 100.084 190.358,100.976 192.960,101.169 193.400 C 101.362 193.840,101.744 194.830,102.020 195.600 C 102.467 196.852,102.951 198.062,104.018 200.600 C 104.203 201.040,104.815 202.440,105.377 203.712 C 105.940 204.983,106.400 206.098,106.400 206.188 C 106.400 207.428,117.095 228.409,122.902 238.563 C 124.652 241.622,126.440 244.759,126.875 245.533 C 127.309 246.307,128.235 247.864,128.932 248.993 C 129.630 250.123,130.412 251.396,130.671 251.823 C 145.793 276.766,171.277 312.537,187.359 331.393 C 188.482 332.709,189.850 334.315,190.400 334.961 C 195.354 340.783,199.265 344.800,199.980 344.800 C 200.313 344.800,204.669 340.363,207.049 337.600 C 207.902 336.610,208.698 335.710,208.817 335.600 C 208.936 335.490,210.376 333.780,212.016 331.800 C 213.656 329.820,215.095 328.110,215.213 328.000 C 216.133 327.148,227.609 312.319,234.175 303.498 C 242.250 292.650,260.000 266.861,260.000 265.978 C 260.000 265.807,260.139 265.607,260.309 265.533 C 260.997 265.237,271.290 248.372,277.695 237.048 C 281.386 230.521,291.037 211.642,292.749 207.600 C 293.261 206.390,293.917 204.860,294.206 204.200 C 294.495 203.540,295.386 201.380,296.186 199.400 C 296.985 197.420,297.811 195.440,298.019 195.000 C 300.354 190.079,304.285 175.074,305.583 166.123 C 306.725 158.245,304.751 140.730,301.578 130.600 C 298.428 120.542,294.622 112.079,289.761 104.326 C 288.423 102.193,283.399 95.070,282.708 94.327 C 282.428 94.026,281.231 92.615,280.047 91.190 C 273.104 82.836,260.748 72.792,251.070 67.637 C 249.349 66.720,247.639 65.800,247.270 65.593 C 246.079 64.925,240.657 62.552,238.600 61.800 C 237.500 61.397,236.429 60.918,236.220 60.734 C 236.011 60.550,235.462 60.400,235.000 60.400 C 234.538 60.400,233.989 60.248,233.780 60.062 C 233.368 59.696,227.376 57.980,223.200 57.033 C 220.591 56.441,218.167 56.002,213.045 55.194 C 210.243 54.752,195.846 54.363,192.200 54.631 M245.569 95.384 C 247.058 96.154,247.188 96.797,247.195 103.446 C 247.201 110.138,246.764 111.200,244.004 111.200 C 241.002 111.200,241.200 110.280,241.200 124.243 L 241.200 136.800 243.020 136.800 C 247.193 136.800,249.681 139.452,251.058 145.368 L 251.762 148.396 253.581 149.040 C 254.581 149.395,255.760 149.828,256.200 150.002 C 256.640 150.177,258.006 150.616,259.235 150.977 C 262.980 152.077,263.200 152.354,263.200 155.961 C 263.200 159.856,263.458 159.588,257.000 162.390 C 250.822 165.070,250.624 165.726,255.705 166.684 C 256.313 166.798,256.908 167.051,257.029 167.246 C 257.149 167.441,257.676 167.600,258.200 167.600 C 258.724 167.600,259.250 167.757,259.368 167.948 C 259.486 168.140,260.090 168.398,260.710 168.522 C 263.299 169.040,263.316 172.084,260.737 173.308 C 258.961 174.151,256.122 176.640,256.498 177.025 C 256.662 177.193,257.256 177.121,257.817 176.865 C 259.065 176.297,266.256 176.243,266.600 176.800 C 266.736 177.020,267.205 177.200,267.643 177.200 C 271.265 177.200,276.774 183.880,277.653 189.336 C 278.796 196.433,272.949 206.400,267.643 206.400 C 267.205 206.400,266.736 206.580,266.600 206.800 C 266.249 207.368,259.278 207.286,257.599 206.694 C 247.298 203.062,243.537 191.675,249.640 182.600 C 250.403 181.466,250.784 180.273,250.952 178.502 C 251.174 176.148,252.438 173.318,253.584 172.610 C 254.241 172.204,254.069 171.197,253.300 170.951 C 252.915 170.828,252.240 170.589,251.800 170.419 C 246.274 168.287,245.600 168.264,245.600 170.213 C 245.600 170.916,245.227 171.966,244.771 172.546 L 243.942 173.600 215.571 173.600 C 199.967 173.600,187.210 173.735,187.222 173.900 C 187.249 174.271,188.963 175.609,190.708 176.622 C 191.788 177.249,192.154 177.296,192.803 176.891 C 194.903 175.579,202.342 176.516,205.553 178.497 C 216.548 185.277,214.634 202.314,202.400 206.563 C 200.365 207.270,193.399 207.445,193.000 206.800 C 192.864 206.580,192.395 206.400,191.957 206.400 C 190.771 206.400,187.157 203.944,185.507 202.016 C 180.589 196.271,180.578 187.342,185.481 181.613 C 186.838 180.028,186.870 179.924,186.153 179.421 C 185.063 178.656,181.070 175.696,180.600 175.305 C 178.974 173.952,178.042 173.600,176.081 173.600 C 174.246 173.600,167.744 171.838,164.200 170.380 C 163.199 169.968,147.867 168.805,146.872 169.065 C 146.181 169.246,146.192 169.362,147.070 171.128 C 147.815 172.627,147.988 173.582,147.938 175.920 C 147.878 178.736,147.925 178.892,149.262 180.320 C 151.243 182.435,152.800 184.648,152.800 185.350 C 152.800 185.681,152.950 186.045,153.133 186.158 C 154.426 186.958,154.436 195.963,153.146 197.380 C 152.956 197.589,152.793 198.039,152.784 198.380 C 152.731 200.388,146.648 205.963,143.802 206.612 C 129.248 209.928,118.628 197.775,124.741 184.800 C 127.377 179.206,132.228 176.400,139.262 176.400 C 141.354 176.400,143.166 176.300,143.288 176.179 C 143.983 175.484,140.634 168.800,139.591 168.800 C 138.636 168.800,137.921 166.380,138.579 165.376 C 139.491 163.984,140.629 163.842,146.684 164.364 C 154.032 164.997,154.072 165.076,144.400 159.888 C 142.750 159.003,141.220 158.146,141.000 157.984 C 140.780 157.822,139.250 156.972,137.600 156.096 C 135.950 155.219,133.700 153.999,132.600 153.385 C 131.500 152.770,130.060 151.967,129.400 151.601 C 126.784 150.148,126.709 149.023,128.988 145.400 C 129.542 144.520,130.120 143.530,130.273 143.200 C 130.426 142.870,131.147 141.664,131.876 140.519 C 132.604 139.375,133.200 138.331,133.200 138.200 C 133.200 138.069,133.830 136.977,134.600 135.773 C 135.370 134.569,136.000 133.500,136.000 133.396 C 136.000 132.690,139.712 127.618,140.386 127.404 C 140.920 127.235,141.967 127.511,143.289 128.170 C 146.543 129.791,146.400 130.046,146.400 122.609 C 146.400 114.289,146.039 114.677,153.612 114.868 C 160.359 115.038,160.000 114.590,160.000 122.816 L 160.000 129.080 161.273 130.840 C 161.974 131.808,162.739 132.798,162.973 133.040 C 163.208 133.282,164.750 135.207,166.400 137.318 L 169.400 141.155 170.084 139.577 L 170.767 138.000 180.770 138.000 C 192.429 138.000,191.649 137.666,191.997 142.800 L 192.200 145.800 210.000 145.911 C 219.790 145.972,228.207 145.923,228.704 145.802 L 229.609 145.583 229.504 128.491 L 229.400 111.400 227.800 111.289 C 224.340 111.050,224.400 111.193,224.400 103.145 L 224.400 96.026 225.500 95.429 C 227.094 94.564,243.911 94.526,245.569 95.384 " stroke="none" fill="#29cc8b" fill-rule="evenodd"></path><path id="path3" d="M225.073 96.260 C 224.923 96.410,224.800 99.544,224.800 103.224 C 224.800 110.754,224.643 110.400,227.990 110.400 C 230.557 110.400,230.400 109.202,230.400 128.819 C 230.400 145.368,230.373 145.986,229.626 146.386 C 229.125 146.654,222.370 146.800,210.449 146.800 L 192.045 146.800 191.423 145.911 C 191.001 145.310,190.800 144.106,190.800 142.191 C 190.800 138.212,191.310 138.400,180.528 138.400 L 171.215 138.400 171.020 139.300 C 170.912 139.795,170.774 140.636,170.712 141.169 C 170.650 141.701,170.390 142.206,170.134 142.291 C 169.701 142.433,164.013 135.621,160.667 130.952 L 159.200 128.904 159.200 122.732 C 159.200 115.140,159.581 115.600,153.294 115.600 C 146.346 115.600,146.800 115.072,146.800 123.147 C 146.800 131.029,147.002 130.602,143.968 129.122 C 140.489 127.425,140.314 127.517,137.150 132.734 C 135.638 135.228,134.400 137.340,134.400 137.426 C 134.400 137.513,133.770 138.569,133.000 139.773 C 132.230 140.977,131.600 142.150,131.600 142.381 C 131.600 142.611,131.420 142.800,131.200 142.800 C 130.980 142.800,130.800 142.971,130.800 143.180 C 130.800 143.389,130.170 144.604,129.401 145.880 C 127.641 148.798,127.623 149.702,129.300 150.738 C 131.480 152.085,136.557 154.834,137.300 155.071 C 137.685 155.193,138.000 155.452,138.000 155.647 C 138.000 155.841,138.194 156.000,138.430 156.000 C 138.667 156.000,140.062 156.700,141.530 157.555 C 144.753 159.432,146.331 160.316,149.888 162.238 C 155.125 165.069,154.576 165.466,146.016 165.043 C 138.492 164.670,137.533 165.383,140.704 168.986 C 142.073 170.541,142.521 171.271,143.686 173.835 C 143.895 174.294,144.006 175.194,143.933 175.835 L 143.800 177.000 140.466 176.857 C 121.582 176.050,116.912 201.465,135.046 206.356 C 141.148 208.002,149.168 204.539,151.644 199.191 C 151.998 198.426,152.538 197.278,152.844 196.639 C 153.592 195.078,153.592 188.522,152.844 186.961 C 152.538 186.322,151.998 185.172,151.644 184.404 C 151.290 183.636,150.063 182.091,148.917 180.971 C 146.851 178.953,146.837 178.923,147.288 177.453 C 147.781 175.848,147.294 173.091,146.056 170.476 C 145.522 169.349,145.513 169.101,145.991 168.806 C 147.177 168.072,163.415 169.085,165.153 170.000 C 165.509 170.188,167.420 170.824,169.400 171.414 C 171.380 172.005,173.522 172.648,174.160 172.844 C 174.798 173.040,176.075 173.200,176.997 173.200 C 178.428 173.200,179.231 173.596,182.438 175.885 C 188.237 180.024,187.999 179.662,186.214 181.637 C 176.238 192.679,187.225 210.485,201.366 206.195 C 204.908 205.120,210.000 201.311,210.000 199.736 C 210.000 199.441,210.136 199.200,210.302 199.200 C 211.674 199.200,212.347 188.964,211.177 185.900 C 210.862 185.075,210.468 184.400,210.302 184.400 C 210.136 184.400,209.997 184.175,209.994 183.900 C 209.983 183.098,207.883 180.936,205.661 179.441 C 201.889 176.903,199.026 176.470,192.200 177.406 C 190.783 177.601,190.417 177.463,189.000 176.208 C 188.120 175.429,187.075 174.688,186.678 174.562 C 183.556 173.569,187.196 173.394,214.913 173.200 C 246.884 172.977,244.452 173.246,244.790 169.890 C 245.050 167.299,246.259 167.353,253.060 170.261 C 253.754 170.558,254.519 170.800,254.760 170.800 C 255.423 170.800,255.316 171.089,253.901 173.128 C 251.878 176.041,251.600 176.744,251.598 178.946 C 251.597 180.567,251.342 181.379,250.386 182.800 C 247.219 187.510,246.541 193.342,248.644 197.782 C 255.796 212.889,277.910 207.699,277.126 191.098 C 276.663 181.283,267.799 174.883,258.149 177.396 C 255.635 178.051,255.409 178.007,255.775 176.930 C 256.263 175.491,259.954 172.400,261.184 172.400 C 261.404 172.400,261.700 171.943,261.840 171.384 C 262.154 170.133,261.082 168.800,259.762 168.800 C 259.259 168.800,258.736 168.620,258.600 168.400 C 258.464 168.180,257.924 168.000,257.400 168.000 C 256.876 168.000,256.336 167.820,256.200 167.600 C 256.064 167.380,255.648 167.199,255.276 167.198 C 254.904 167.196,254.084 166.926,253.454 166.598 C 252.824 166.269,251.991 166.000,251.603 166.000 C 251.215 166.000,250.674 165.730,250.400 165.400 C 250.126 165.070,249.609 164.797,249.251 164.794 C 248.685 164.789,248.678 164.737,249.200 164.400 C 249.530 164.187,250.312 164.009,250.938 164.006 C 251.564 164.003,252.554 163.752,253.138 163.449 C 253.722 163.146,254.740 162.674,255.400 162.400 C 256.060 162.126,257.078 161.654,257.662 161.351 C 258.246 161.048,259.011 160.800,259.362 160.800 C 259.713 160.800,260.000 160.620,260.000 160.400 C 260.000 160.180,260.332 160.000,260.738 160.000 C 263.295 160.000,263.769 153.746,261.311 152.452 C 260.193 151.863,253.301 149.600,252.626 149.600 C 251.645 149.600,250.767 148.073,250.385 145.699 C 249.468 140.002,246.837 137.200,242.407 137.200 L 240.789 137.200 240.895 123.900 L 241.000 110.600 242.800 110.495 C 246.740 110.264,246.434 110.909,246.309 103.090 L 246.200 96.200 235.773 96.094 C 230.038 96.035,225.223 96.110,225.073 96.260 M242.600 103.000 L 242.600 106.200 235.600 106.200 L 228.600 106.200 228.481 103.235 C 228.329 99.448,228.046 99.581,236.000 99.701 L 242.600 99.800 242.600 103.000 M236.704 128.526 L 236.808 146.051 235.504 145.926 L 234.200 145.800 234.089 129.200 C 233.964 110.609,233.958 110.695,235.514 110.875 L 236.600 111.000 236.704 128.526 M155.519 122.999 C 155.699 127.857,155.596 128.065,153.087 127.920 L 151.000 127.800 150.886 123.680 L 150.772 119.559 153.086 119.680 L 155.400 119.800 155.519 122.999 M160.074 136.651 C 161.903 138.989,164.014 141.734,164.765 142.751 C 165.516 143.768,166.244 144.690,166.384 144.800 C 166.523 144.910,167.494 146.125,168.542 147.500 C 169.590 148.875,170.481 150.043,170.523 150.095 C 170.566 150.146,186.350 150.281,205.600 150.395 L 240.600 150.600 240.711 156.131 L 240.823 161.661 239.911 161.403 C 238.113 160.893,234.985 159.885,234.200 159.561 C 233.760 159.379,232.410 158.928,231.200 158.558 C 229.990 158.187,228.829 157.730,228.620 157.542 C 228.411 157.354,227.856 157.200,227.387 157.200 C 226.917 157.200,226.422 157.088,226.285 156.952 C 226.148 156.815,223.226 155.753,219.791 154.591 L 213.546 152.478 203.073 156.056 C 197.313 158.023,188.316 161.078,183.079 162.845 L 173.558 166.057 169.879 165.808 C 162.485 165.308,158.075 164.284,157.549 162.944 C 157.388 162.535,157.244 157.876,157.228 152.591 L 157.200 142.981 154.000 139.800 C 150.807 136.625,150.800 136.614,150.800 134.509 L 150.800 132.400 153.774 132.400 L 156.748 132.400 160.074 136.651 M144.413 133.807 C 146.163 134.693,146.403 134.968,146.428 136.107 C 146.470 138.017,146.712 138.407,150.100 142.004 L 153.200 145.295 153.200 152.247 C 153.200 156.071,153.088 159.200,152.951 159.200 C 152.727 159.200,150.372 157.958,145.200 155.111 C 144.210 154.566,142.230 153.483,140.800 152.704 C 139.370 151.926,137.001 150.592,135.536 149.740 L 132.872 148.191 133.423 146.995 C 133.725 146.338,134.428 145.080,134.984 144.200 C 135.540 143.320,136.116 142.330,136.265 142.000 C 136.414 141.670,137.135 140.452,137.868 139.292 C 138.601 138.133,139.200 137.101,139.200 136.998 C 139.200 136.509,141.716 132.800,142.048 132.800 C 142.256 132.800,143.321 133.253,144.413 133.807 M244.406 141.713 C 246.194 143.152,247.455 148.600,246.000 148.600 C 245.670 148.600,245.227 148.207,245.016 147.726 C 244.601 146.780,243.229 146.000,241.981 146.000 C 241.315 146.000,241.200 145.718,241.200 144.080 C 241.200 141.423,242.684 140.327,244.406 141.713 M187.026 142.959 C 187.158 143.487,187.206 144.342,187.133 144.859 L 187.000 145.800 180.800 145.800 L 174.600 145.800 174.473 144.474 C 174.250 142.153,174.656 142.000,181.041 142.000 C 186.769 142.000,186.785 142.003,187.026 142.959 M249.357 153.833 C 249.791 154.962,249.617 159.423,249.120 159.920 C 248.608 160.432,246.875 160.557,245.833 160.157 C 245.179 159.906,244.860 154.073,245.467 153.467 C 246.034 152.899,249.110 153.189,249.357 153.833 M257.100 155.059 C 259.172 155.851,259.110 156.313,256.771 157.496 C 254.004 158.896,253.600 158.756,253.600 156.400 C 253.600 154.082,254.070 153.902,257.100 155.059 M221.000 159.497 C 224.080 160.588,226.870 161.584,227.200 161.710 C 227.530 161.836,229.690 162.579,232.000 163.360 C 241.133 166.449,240.600 166.182,240.600 167.669 L 240.600 169.000 210.700 169.000 C 191.965 169.000,180.763 168.857,180.700 168.617 C 180.617 168.298,191.242 164.369,195.400 163.181 C 198.002 162.437,211.673 157.660,211.928 157.406 C 212.476 156.857,215.544 157.564,221.000 159.497 M140.927 181.033 C 152.572 184.050,152.606 199.541,140.974 202.555 C 127.048 206.164,122.404 185.341,136.166 180.995 C 138.330 180.312,138.138 180.310,140.927 181.033 M199.400 180.942 C 211.393 184.138,211.417 199.481,199.433 202.644 C 188.608 205.501,181.501 190.272,190.384 183.251 C 192.324 181.717,193.561 181.209,197.200 180.451 C 197.310 180.428,198.300 180.649,199.400 180.942 M264.504 180.955 C 276.286 183.727,276.293 199.591,264.514 202.603 C 250.701 206.136,246.123 185.303,259.766 180.995 C 261.894 180.323,261.823 180.324,264.504 180.955 " stroke="none" fill="#333333" fill-rule="evenodd"></path></g></svg>